<svg xmlns="http://www.w3.org/2000/svg" width="300" height="400"><path d="M-77,-70L-31,-73L171,-110Z" fill="#8b5666" stroke="#8b5666" stroke-width="1.51"/><path d="M394,298L324,349L402,420Z" fill="#915d64" stroke="#915d64" stroke-width="1.51"/><path d="M171,-110L334,-115L409,-119Z" fill="#794469" stroke="#794469" stroke-width="1.51"/><path d="M334,-115L309,-33L409,-119Z" fill="#713b6a" stroke="#713b6a" stroke-width="1.51"/><path d="M409,-119L309,-33L416,14Z" fill="#753e6a" stroke="#753e6a" stroke-width="1.51"/><path d="M336,146L392,224L426,133Z" fill="#b0805a" stroke="#b0805a" stroke-width="1.51"/><path d="M387,46L336,146L426,133Z" fill="#a06e60" stroke="#a06e60" stroke-width="1.51"/><path d="M392,224L394,298L426,133Z" fill="#ae7e5b" stroke="#ae7e5b" stroke-width="1.51"/><path d="M416,14L387,46L426,133Z" fill="#8b5665" stroke="#8b5665" stroke-width="1.51"/><path d="M409,-119L416,14L426,133Z" fill="#78426a" stroke="#78426a" stroke-width="1.51"/><path d="M402,420L320,504L430,483Z" fill="#6c366b" stroke="#6c366b" stroke-width="1.51"/><path d="M426,133L394,298L430,483Z" fill="#915e64" stroke="#915e64" stroke-width="1.51"/><path d="M394,298L402,420L430,483Z" fill="#784269" stroke="#784269" stroke-width="1.51"/><path d="M314,101L336,146L387,46Z" fill="#a9785d" stroke="#a9785d" stroke-width="1.51"/><path d="M309,-33L387,46L416,14Z" fill="#875366" stroke="#875366" stroke-width="1.51"/><path d="M295,426L320,504L402,420Z" fill="#814b67" stroke="#814b67" stroke-width="1.51"/><path d="M392,224L306,266L394,298Z" fill="#ae7e5b" stroke="#ae7e5b" stroke-width="1.51"/><path d="M324,349L295,426L402,420Z" fill="#905b65" stroke="#905b65" stroke-width="1.51"/><path d="M306,266L324,349L394,298Z" fill="#aa795d" stroke="#aa795d" stroke-width="1.51"/><path d="M336,146L306,266L392,224Z" fill="#c29653" stroke="#c29653" stroke-width="1.51"/><path d="M309,-33L314,101L387,46Z" fill="#9c6861" stroke="#9c6861" stroke-width="1.51"/><path d="M309,-33L261,-2L314,101Z" fill="#a5725f" stroke="#a5725f" stroke-width="1.51"/><path d="M261,-2L240,71L314,101Z" fill="#b58659" stroke="#b58659" stroke-width="1.51"/><path d="M236,469L159,516L320,504Z" fill="#956163" stroke="#956163" stroke-width="1.51"/><path d="M171,-110L257,-81L334,-115Z" fill="#8f5a64" stroke="#8f5a64" stroke-width="1.51"/><path d="M257,-81L309,-33L334,-115Z" fill="#865267" stroke="#865267" stroke-width="1.51"/><path d="M263,215L306,266L336,146Z" fill="#cfa84b" stroke="#cfa84b" stroke-width="1.51"/><path d="M314,101L251,163L336,146Z" fill="#c19653" stroke="#c19653" stroke-width="1.51"/><path d="M251,163L263,215L336,146Z" fill="#d1a94a" stroke="#d1a94a" stroke-width="1.51"/><path d="M-31,-73L86,-77L171,-110Z" fill="#9d6961" stroke="#9d6961" stroke-width="1.51"/><path d="M295,426L236,469L320,504Z" fill="#8f5a64" stroke="#8f5a64" stroke-width="1.51"/><path d="M259,420L295,426L324,349Z" fill="#9f6c60" stroke="#9f6c60" stroke-width="1.51"/><path d="M306,266L207,317L324,349Z" fill="#bb8e56" stroke="#bb8e56" stroke-width="1.51"/><path d="M207,317L259,420L324,349Z" fill="#b3835a" stroke="#b3835a" stroke-width="1.51"/><path d="M240,71L251,163L314,101Z" fill="#c59a51" stroke="#c59a51" stroke-width="1.51"/><path d="M259,420L236,469L295,426Z" fill="#9d6a61" stroke="#9d6a61" stroke-width="1.51"/><path d="M257,-81L261,-2L309,-33Z" fill="#9a6662" stroke="#9a6662" stroke-width="1.51"/><path d="M263,215L207,317L306,266Z" fill="#cea54c" stroke="#cea54c" stroke-width="1.51"/><path d="M171,-110L137,-24L257,-81Z" fill="#ac7b5c" stroke="#ac7b5c" stroke-width="1.51"/><path d="M207,317L160,383L259,420Z" fill="#c09454" stroke="#c09454" stroke-width="1.51"/><path d="M257,-81L137,-24L261,-2Z" fill="#ac7c5c" stroke="#ac7c5c" stroke-width="1.51"/><path d="M137,-24L240,71L261,-2Z" fill="#bc8f56" stroke="#bc8f56" stroke-width="1.51"/><path d="M133,246L207,317L263,215Z" fill="#e0bd3e" stroke="#e0bd3e" stroke-width="1.51"/><path d="M251,163L129,171L263,215Z" fill="#e8c737" stroke="#e8c737" stroke-width="1.51"/><path d="M129,171L133,246L263,215Z" fill="#f5d924" stroke="#f5d924" stroke-width="1.51"/><path d="M137,-24L139,68L240,71Z" fill="#cfa64c" stroke="#cfa64c" stroke-width="1.51"/><path d="M240,71L139,68L251,163Z" fill="#d3ac48" stroke="#d3ac48" stroke-width="1.51"/><path d="M139,68L129,171L251,163Z" fill="#e7c637" stroke="#e7c637" stroke-width="1.51"/><path d="M160,383L236,469L259,420Z" fill="#af805a" stroke="#af805a" stroke-width="1.51"/><path d="M160,383L159,516L236,469Z" fill="#b1825a" stroke="#b1825a" stroke-width="1.51"/><path d="M91,484L159,516L160,383Z" fill="#b78858" stroke="#b78858" stroke-width="1.51"/><path d="M86,417L91,484L160,383Z" fill="#b88a57" stroke="#b88a57" stroke-width="1.51"/><path d="M133,246L151,350L207,317Z" fill="#e0bd3e" stroke="#e0bd3e" stroke-width="1.51"/><path d="M151,350L160,383L207,317Z" fill="#d1aa49" stroke="#d1aa49" stroke-width="1.51"/><path d="M133,246L80,333L151,350Z" fill="#dab544" stroke="#dab544" stroke-width="1.51"/><path d="M91,484L-19,527L159,516Z" fill="#976363" stroke="#976363" stroke-width="1.51"/><path d="M86,-77L137,-24L171,-110Z" fill="#b3835a" stroke="#b3835a" stroke-width="1.51"/><path d="M81,166L129,171L139,68Z" fill="#e4c33b" stroke="#e4c33b" stroke-width="1.51"/><path d="M151,350L86,417L160,383Z" fill="#caa14f" stroke="#caa14f" stroke-width="1.51"/><path d="M61,272L80,333L133,246Z" fill="#d8b245" stroke="#d8b245" stroke-width="1.51"/><path d="M53,81L81,166L139,68Z" fill="#d5ae47" stroke="#d5ae47" stroke-width="1.51"/><path d="M137,-24L58,-37L139,68Z" fill="#c09454" stroke="#c09454" stroke-width="1.51"/><path d="M58,-37L53,81L139,68Z" fill="#c09553" stroke="#c09553" stroke-width="1.51"/><path d="M80,333L86,417L151,350Z" fill="#c69c51" stroke="#c69c51" stroke-width="1.51"/><path d="M129,171L81,166L133,246Z" fill="#f3d627" stroke="#f3d627" stroke-width="1.51"/><path d="M86,-77L58,-37L137,-24Z" fill="#ad7d5b" stroke="#ad7d5b" stroke-width="1.51"/><path d="M81,166L61,272L133,246Z" fill="#e7c538" stroke="#e7c538" stroke-width="1.51"/><path d="M-12,-12L53,81L58,-37Z" fill="#aa795d" stroke="#aa795d" stroke-width="1.51"/><path d="M-15,340L-12,420L80,333Z" fill="#ac7b5c" stroke="#ac7b5c" stroke-width="1.51"/><path d="M-19,263L61,272L81,166Z" fill="#d6b047" stroke="#d6b047" stroke-width="1.51"/><path d="M80,333L-12,420L86,417Z" fill="#af805b" stroke="#af805b" stroke-width="1.51"/><path d="M86,417L-12,420L91,484Z" fill="#a3715f" stroke="#a3715f" stroke-width="1.51"/><path d="M-12,420L-19,527L91,484Z" fill="#8d5865" stroke="#8d5865" stroke-width="1.51"/><path d="M53,81L-26,99L81,166Z" fill="#c79c50" stroke="#c79c50" stroke-width="1.51"/><path d="M-26,99L-39,132L81,166Z" fill="#c29752" stroke="#c29752" stroke-width="1.51"/><path d="M-31,-73L58,-37L86,-77Z" fill="#976363" stroke="#976363" stroke-width="1.51"/><path d="M61,272L-15,340L80,333Z" fill="#c19553" stroke="#c19553" stroke-width="1.51"/><path d="M-39,132L-19,263L81,166Z" fill="#d1aa4a" stroke="#d1aa4a" stroke-width="1.51"/><path d="M-12,-12L-26,99L53,81Z" fill="#ad7d5c" stroke="#ad7d5c" stroke-width="1.51"/><path d="M-19,263L-15,340L61,272Z" fill="#bd9055" stroke="#bd9055" stroke-width="1.51"/><path d="M-31,-73L-12,-12L58,-37Z" fill="#925e64" stroke="#925e64" stroke-width="1.51"/><path d="M-39,132L-89,136L-19,263Z" fill="#bd9155" stroke="#bd9155" stroke-width="1.51"/><path d="M-89,136L-106,269L-19,263Z" fill="#b78958" stroke="#b78958" stroke-width="1.51"/><path d="M-106,269L-101,329L-19,263Z" fill="#a4725e" stroke="#a4725e" stroke-width="1.51"/><path d="M-19,263L-101,329L-15,340Z" fill="#a7765e" stroke="#a7765e" stroke-width="1.51"/><path d="M-98,484L-19,527L-12,420Z" fill="#774169" stroke="#774169" stroke-width="1.51"/><path d="M-77,400L-98,484L-12,420Z" fill="#7e4769" stroke="#7e4769" stroke-width="1.51"/><path d="M-15,340L-77,400L-12,420Z" fill="#956163" stroke="#956163" stroke-width="1.51"/><path d="M-31,-73L-77,-70L-12,-12Z" fill="#804a68" stroke="#804a68" stroke-width="1.51"/><path d="M-77,-70L-112,3L-12,-12Z" fill="#7f4968" stroke="#7f4968" stroke-width="1.51"/><path d="M-78,87L-26,99L-12,-12Z" fill="#a06e60" stroke="#a06e60" stroke-width="1.51"/><path d="M-112,3L-78,87L-12,-12Z" fill="#8e5965" stroke="#8e5965" stroke-width="1.51"/><path d="M-101,329L-77,400L-15,340Z" fill="#946063" stroke="#946063" stroke-width="1.51"/><path d="M-78,87L-39,132L-26,99Z" fill="#ab7a5d" stroke="#ab7a5d" stroke-width="1.51"/><path d="M-78,87L-89,136L-39,132Z" fill="#a8765d" stroke="#a8765d" stroke-width="1.51"/><path d="M-101,329L-98,484L-77,400Z" fill="#7c4768" stroke="#7c4768" stroke-width="1.51"/><path d="M-112,3L-89,136L-78,87Z" fill="#946063" stroke="#946063" stroke-width="1.51"/><path d="M-112,3L-106,269L-89,136Z" fill="#a26f5f" stroke="#a26f5f" stroke-width="1.51"/><path d="M-101,329L-106,269L-98,484Z" fill="#865167" stroke="#865167" stroke-width="1.51"/></svg>