<svg xmlns="http://www.w3.org/2000/svg" width="1920" height="1080"><path d="M453,-219L835,-181L1165,-229Z" fill="#431487" stroke="#431487" stroke-width="1.51"/><path d="M377,-227L453,-219L1165,-229Z" fill="#411283" stroke="#411283" stroke-width="1.51"/><path d="M377,-227L1165,-229L1587,-234Z" fill="#47178c" stroke="#47178c" stroke-width="1.51"/><path d="M1165,-229L1370,-213L1587,-234Z" fill="#4d1c92" stroke="#4d1c92" stroke-width="1.51"/><path d="M1609,1239L1209,1305L1760,1234Z" fill="#753bc6" stroke="#753bc6" stroke-width="1.51"/><path d="M1587,-234L1825,-158L1918,-163Z" fill="#55229c" stroke="#55229c" stroke-width="1.51"/><path d="M2021,495L1992,554L2115,667Z" fill="#6c34bb" stroke="#6c34bb" stroke-width="1.51"/><path d="M2108,343L2021,495L2115,667Z" fill="#6b33ba" stroke="#6b33ba" stroke-width="1.51"/><path d="M1760,1234L1209,1305L2116,1241Z" fill="#783dca" stroke="#783dca" stroke-width="1.51"/><path d="M1931,1203L1760,1234L2116,1241Z" fill="#7b3fce" stroke="#7b3fce" stroke-width="1.51"/><path d="M2108,1120L1968,1130L2116,1241Z" fill="#7c40cf" stroke="#7c40cf" stroke-width="1.51"/><path d="M1877,1028L1968,1130L2120,935Z" fill="#773cc9" stroke="#773cc9" stroke-width="1.51"/><path d="M1968,1130L2108,1120L2120,935Z" fill="#793ecc" stroke="#793ecc" stroke-width="1.51"/><path d="M2108,1120L2116,1241L2120,935Z" fill="#7a3fce" stroke="#7a3fce" stroke-width="1.51"/><path d="M1935,10L1910,117L2121,46Z" fill="#5e29a9" stroke="#5e29a9" stroke-width="1.51"/><path d="M2121,46L1910,117L2123,194Z" fill="#612bac" stroke="#612bac" stroke-width="1.51"/><path d="M1954,269L2108,343L2123,194Z" fill="#652eb1" stroke="#652eb1" stroke-width="1.51"/><path d="M2115,667L1917,742L2127,756Z" fill="#7037c0" stroke="#7037c0" stroke-width="1.51"/><path d="M2123,194L2108,343L2127,756Z" fill="#6a32b8" stroke="#6a32b8" stroke-width="1.51"/><path d="M2108,343L2115,667L2127,756Z" fill="#6e35bd" stroke="#6e35bd" stroke-width="1.51"/><path d="M2127,756L1994,849L2128,826Z" fill="#7339c4" stroke="#7339c4" stroke-width="1.51"/><path d="M1994,849L2120,935L2128,826Z" fill="#743ac6" stroke="#743ac6" stroke-width="1.51"/><path d="M2120,935L2116,1241L2128,826Z" fill="#783dcb" stroke="#783dcb" stroke-width="1.51"/><path d="M1994,849L1877,1028L2120,935Z" fill="#743ac6" stroke="#743ac6" stroke-width="1.51"/><path d="M2107,-47L1935,10L2121,46Z" fill="#5d29a9" stroke="#5d29a9" stroke-width="1.51"/><path d="M1917,742L1994,849L2127,756Z" fill="#7138c1" stroke="#7138c1" stroke-width="1.51"/><path d="M1910,117L1954,269L2123,194Z" fill="#612cad" stroke="#612cad" stroke-width="1.51"/><path d="M1968,1130L1931,1203L2116,1241Z" fill="#7b40ce" stroke="#7b40ce" stroke-width="1.51"/><path d="M1920,309L2021,495L2108,343Z" fill="#6730b4" stroke="#6730b4" stroke-width="1.51"/><path d="M1992,554L1917,742L2115,667Z" fill="#6e35bd" stroke="#6e35bd" stroke-width="1.51"/><path d="M2044,-119L1935,10L2107,-47Z" fill="#5b27a6" stroke="#5b27a6" stroke-width="1.51"/><path d="M1954,269L1920,309L2108,343Z" fill="#642eb1" stroke="#642eb1" stroke-width="1.51"/><path d="M1920,309L1884,455L2021,495Z" fill="#662fb3" stroke="#662fb3" stroke-width="1.51"/><path d="M1918,-163L1935,10L2044,-119Z" fill="#5926a4" stroke="#5926a4" stroke-width="1.51"/><path d="M1798,608L1917,742L1992,554Z" fill="#6b33ba" stroke="#6b33ba" stroke-width="1.51"/><path d="M1805,925L1877,1028L1994,849Z" fill="#7339c3" stroke="#7339c3" stroke-width="1.51"/><path d="M1884,455L1992,554L2021,495Z" fill="#6932b7" stroke="#6932b7" stroke-width="1.51"/><path d="M1856,792L1805,925L1994,849Z" fill="#7037c1" stroke="#7037c1" stroke-width="1.51"/><path d="M1917,742L1856,792L1994,849Z" fill="#7036c0" stroke="#7036c0" stroke-width="1.51"/><path d="M1884,455L1798,608L1992,554Z" fill="#6931b6" stroke="#6931b6" stroke-width="1.51"/><path d="M1918,-163L1825,-158L1935,10Z" fill="#5825a1" stroke="#5825a1" stroke-width="1.51"/><path d="M1910,117L1838,270L1954,269Z" fill="#612bac" stroke="#612bac" stroke-width="1.51"/><path d="M1877,1028L1931,1203L1968,1130Z" fill="#783dca" stroke="#783dca" stroke-width="1.51"/><path d="M1844,302L1884,455L1920,309Z" fill="#632db0" stroke="#632db0" stroke-width="1.51"/><path d="M1877,1028L1791,1053L1931,1203Z" fill="#763cc8" stroke="#763cc8" stroke-width="1.51"/><path d="M1791,1053L1748,1146L1931,1203Z" fill="#773dc8" stroke="#773dc8" stroke-width="1.51"/><path d="M1825,-158L1757,-10L1935,10Z" fill="#5925a2" stroke="#5925a2" stroke-width="1.51"/><path d="M1838,270L1920,309L1954,269Z" fill="#622caf" stroke="#622caf" stroke-width="1.51"/><path d="M632,1280L485,1302L1013,1307Z" fill="#6831b5" stroke="#6831b5" stroke-width="1.51"/><path d="M1757,-10L1741,78L1910,117Z" fill="#5b27a5" stroke="#5b27a5" stroke-width="1.51"/><path d="M1757,-10L1910,117L1935,10Z" fill="#5c27a5" stroke="#5c27a5" stroke-width="1.51"/><path d="M1838,270L1844,302L1920,309Z" fill="#622cae" stroke="#622cae" stroke-width="1.51"/><path d="M1748,1146L1760,1234L1931,1203Z" fill="#783dca" stroke="#783dca" stroke-width="1.51"/><path d="M1785,461L1798,608L1884,455Z" fill="#6630b4" stroke="#6630b4" stroke-width="1.51"/><path d="M1741,78L1838,270L1910,117Z" fill="#5e29a8" stroke="#5e29a8" stroke-width="1.51"/><path d="M1798,608L1856,792L1917,742Z" fill="#6c34bb" stroke="#6c34bb" stroke-width="1.51"/><path d="M1844,302L1785,461L1884,455Z" fill="#642eb1" stroke="#642eb1" stroke-width="1.51"/><path d="M1739,852L1805,925L1856,792Z" fill="#6f36bf" stroke="#6f36bf" stroke-width="1.51"/><path d="M1805,925L1791,1053L1877,1028Z" fill="#7339c4" stroke="#7339c4" stroke-width="1.51"/><path d="M1798,608L1634,747L1856,792Z" fill="#6b33b9" stroke="#6b33b9" stroke-width="1.51"/><path d="M1587,-234L1613,-174L1825,-158Z" fill="#53209a" stroke="#53209a" stroke-width="1.51"/><path d="M1741,78L1636,157L1838,270Z" fill="#5c28a7" stroke="#5c28a7" stroke-width="1.51"/><path d="M1675,399L1785,461L1844,302Z" fill="#622caf" stroke="#622caf" stroke-width="1.51"/><path d="M1634,747L1739,852L1856,792Z" fill="#6c34bc" stroke="#6c34bc" stroke-width="1.51"/><path d="M1669,-91L1757,-10L1825,-158Z" fill="#57239f" stroke="#57239f" stroke-width="1.51"/><path d="M1838,270L1675,399L1844,302Z" fill="#612cad" stroke="#612cad" stroke-width="1.51"/><path d="M1636,157L1675,399L1838,270Z" fill="#5f2aaa" stroke="#5f2aaa" stroke-width="1.51"/><path d="M1330,1231L1209,1305L1609,1239Z" fill="#7239c3" stroke="#7239c3" stroke-width="1.51"/><path d="M1613,-174L1669,-91L1825,-158Z" fill="#54229c" stroke="#54229c" stroke-width="1.51"/><path d="M1748,1146L1729,1207L1760,1234Z" fill="#773cc9" stroke="#773cc9" stroke-width="1.51"/><path d="M1785,461L1612,574L1798,608Z" fill="#662fb3" stroke="#662fb3" stroke-width="1.51"/><path d="M1612,574L1634,747L1798,608Z" fill="#6730b5" stroke="#6730b5" stroke-width="1.51"/><path d="M1664,1054L1791,1053L1805,925Z" fill="#7239c3" stroke="#7239c3" stroke-width="1.51"/><path d="M1739,852L1664,1054L1805,925Z" fill="#7037c0" stroke="#7037c0" stroke-width="1.51"/><path d="M1594,1009L1664,1054L1739,852Z" fill="#7037bf" stroke="#7037bf" stroke-width="1.51"/><path d="M1653,412L1612,574L1785,461Z" fill="#632db0" stroke="#632db0" stroke-width="1.51"/><path d="M1664,1054L1748,1146L1791,1053Z" fill="#743ac5" stroke="#743ac5" stroke-width="1.51"/><path d="M1675,399L1653,412L1785,461Z" fill="#622daf" stroke="#622daf" stroke-width="1.51"/><path d="M1664,1054L1649,1145L1748,1146Z" fill="#743ac5" stroke="#743ac5" stroke-width="1.51"/><path d="M1626,57L1741,78L1757,-10Z" fill="#5925a2" stroke="#5925a2" stroke-width="1.51"/><path d="M1729,1207L1609,1239L1760,1234Z" fill="#773cc9" stroke="#773cc9" stroke-width="1.51"/><path d="M1669,-91L1606,-53L1757,-10Z" fill="#56239f" stroke="#56239f" stroke-width="1.51"/><path d="M1606,-53L1626,57L1757,-10Z" fill="#5724a0" stroke="#5724a0" stroke-width="1.51"/><path d="M1636,157L1520,226L1675,399Z" fill="#5d28a7" stroke="#5d28a7" stroke-width="1.51"/><path d="M1583,799L1594,1009L1739,852Z" fill="#6d35bc" stroke="#6d35bc" stroke-width="1.51"/><path d="M1649,1145L1729,1207L1748,1146Z" fill="#753bc7" stroke="#753bc7" stroke-width="1.51"/><path d="M1634,747L1583,799L1739,852Z" fill="#6b33b9" stroke="#6b33b9" stroke-width="1.51"/><path d="M1626,57L1636,157L1741,78Z" fill="#5a26a3" stroke="#5a26a3" stroke-width="1.51"/><path d="M1649,1145L1609,1239L1729,1207Z" fill="#763bc7" stroke="#763bc7" stroke-width="1.51"/><path d="M1583,799L1517,851L1594,1009Z" fill="#6b34bb" stroke="#6b34bb" stroke-width="1.51"/><path d="M1375,1209L1330,1231L1609,1239Z" fill="#7239c3" stroke="#7239c3" stroke-width="1.51"/><path d="M1609,1157L1609,1239L1649,1145Z" fill="#743ac6" stroke="#743ac6" stroke-width="1.51"/><path d="M1520,226L1494,350L1653,412Z" fill="#5d29a8" stroke="#5d29a8" stroke-width="1.51"/><path d="M1547,481L1612,574L1653,412Z" fill="#622cae" stroke="#622cae" stroke-width="1.51"/><path d="M1609,1157L1649,1145L1664,1054Z" fill="#7339c4" stroke="#7339c4" stroke-width="1.51"/><path d="M1520,226L1653,412L1675,399Z" fill="#5f2aaa" stroke="#5f2aaa" stroke-width="1.51"/><path d="M1612,574L1494,589L1634,747Z" fill="#662fb2" stroke="#662fb2" stroke-width="1.51"/><path d="M1594,1009L1609,1157L1664,1054Z" fill="#7138c2" stroke="#7138c2" stroke-width="1.51"/><path d="M1613,-174L1606,-53L1669,-91Z" fill="#54229b" stroke="#54229b" stroke-width="1.51"/><path d="M1626,57L1533,94L1636,157Z" fill="#5825a2" stroke="#5825a2" stroke-width="1.51"/><path d="M1494,350L1547,481L1653,412Z" fill="#5f2aab" stroke="#5f2aab" stroke-width="1.51"/><path d="M1494,589L1460,763L1634,747Z" fill="#662fb3" stroke="#662fb3" stroke-width="1.51"/><path d="M1606,-53L1533,94L1626,57Z" fill="#56249f" stroke="#56249f" stroke-width="1.51"/><path d="M1460,763L1583,799L1634,747Z" fill="#6831b6" stroke="#6831b6" stroke-width="1.51"/><path d="M1533,94L1520,226L1636,157Z" fill="#5926a3" stroke="#5926a3" stroke-width="1.51"/><path d="M1594,1009L1430,1027L1609,1157Z" fill="#7037c0" stroke="#7037c0" stroke-width="1.51"/><path d="M1433,43L1533,94L1606,-53Z" fill="#55239e" stroke="#55239e" stroke-width="1.51"/><path d="M1430,1027L1401,1112L1609,1157Z" fill="#6f37c0" stroke="#6f37c0" stroke-width="1.51"/><path d="M1401,1112L1375,1209L1609,1157Z" fill="#7138c1" stroke="#7138c1" stroke-width="1.51"/><path d="M1609,1157L1375,1209L1609,1239Z" fill="#7339c4" stroke="#7339c4" stroke-width="1.51"/><path d="M1547,481L1494,589L1612,574Z" fill="#632daf" stroke="#632daf" stroke-width="1.51"/><path d="M1587,-234L1370,-213L1613,-174Z" fill="#501e96" stroke="#501e96" stroke-width="1.51"/><path d="M1380,-19L1606,-53L1613,-174Z" fill="#53209a" stroke="#53209a" stroke-width="1.51"/><path d="M1370,-213L1380,-19L1613,-174Z" fill="#501e97" stroke="#501e97" stroke-width="1.51"/><path d="M1517,851L1430,1027L1594,1009Z" fill="#6d35bc" stroke="#6d35bc" stroke-width="1.51"/><path d="M1380,-19L1433,43L1606,-53Z" fill="#53219c" stroke="#53219c" stroke-width="1.51"/><path d="M1416,657L1460,763L1494,589Z" fill="#642eb1" stroke="#642eb1" stroke-width="1.51"/><path d="M1460,763L1517,851L1583,799Z" fill="#6932b7" stroke="#6932b7" stroke-width="1.51"/><path d="M1422,835L1430,1027L1517,851Z" fill="#6a32b9" stroke="#6a32b9" stroke-width="1.51"/><path d="M1416,163L1520,226L1533,94Z" fill="#5825a1" stroke="#5825a1" stroke-width="1.51"/><path d="M1441,493L1494,589L1547,481Z" fill="#612cad" stroke="#612cad" stroke-width="1.51"/><path d="M1494,350L1441,493L1547,481Z" fill="#5f2aaa" stroke="#5f2aaa" stroke-width="1.51"/><path d="M1368,328L1494,350L1520,226Z" fill="#5b27a5" stroke="#5b27a5" stroke-width="1.51"/><path d="M1433,43L1416,163L1533,94Z" fill="#56239f" stroke="#56239f" stroke-width="1.51"/><path d="M1460,763L1422,835L1517,851Z" fill="#6831b6" stroke="#6831b6" stroke-width="1.51"/><path d="M1416,163L1368,328L1520,226Z" fill="#5926a3" stroke="#5926a3" stroke-width="1.51"/><path d="M401,1284L36,1268L485,1302Z" fill="#612cac" stroke="#612cac" stroke-width="1.51"/><path d="M453,-219L643,-176L835,-181Z" fill="#411284" stroke="#411284" stroke-width="1.51"/><path d="M1422,835L1324,958L1430,1027Z" fill="#6a33b8" stroke="#6a33b8" stroke-width="1.51"/><path d="M1368,328L1441,493L1494,350Z" fill="#5d29a7" stroke="#5d29a7" stroke-width="1.51"/><path d="M1441,493L1416,657L1494,589Z" fill="#622cae" stroke="#622cae" stroke-width="1.51"/><path d="M1165,-229L1322,-196L1370,-213Z" fill="#4b1b91" stroke="#4b1b91" stroke-width="1.51"/><path d="M1370,-213L1322,-196L1380,-19Z" fill="#4e1d94" stroke="#4e1d94" stroke-width="1.51"/><path d="M1340,84L1416,163L1433,43Z" fill="#55239d" stroke="#55239d" stroke-width="1.51"/><path d="M1349,510L1416,657L1441,493Z" fill="#602bac" stroke="#602bac" stroke-width="1.51"/><path d="M1368,328L1349,510L1441,493Z" fill="#5d29a8" stroke="#5d29a8" stroke-width="1.51"/><path d="M1305,673L1422,835L1460,763Z" fill="#662fb2" stroke="#662fb2" stroke-width="1.51"/><path d="M1416,657L1305,673L1460,763Z" fill="#642eb0" stroke="#642eb0" stroke-width="1.51"/><path d="M1303,855L1324,958L1422,835Z" fill="#6831b6" stroke="#6831b6" stroke-width="1.51"/><path d="M1305,673L1303,855L1422,835Z" fill="#652fb2" stroke="#652fb2" stroke-width="1.51"/><path d="M1293,338L1349,510L1368,328Z" fill="#5b27a6" stroke="#5b27a6" stroke-width="1.51"/><path d="M1226,268L1368,328L1416,163Z" fill="#5825a1" stroke="#5825a1" stroke-width="1.51"/><path d="M1349,510L1305,673L1416,657Z" fill="#612cad" stroke="#612cad" stroke-width="1.51"/><path d="M1308,1095L1401,1112L1430,1027Z" fill="#6d35bd" stroke="#6d35bd" stroke-width="1.51"/><path d="M1380,-19L1340,84L1433,43Z" fill="#53219b" stroke="#53219b" stroke-width="1.51"/><path d="M1324,958L1308,1095L1430,1027Z" fill="#6c33ba" stroke="#6c33ba" stroke-width="1.51"/><path d="M1322,-196L1235,-37L1380,-19Z" fill="#4f1d96" stroke="#4f1d96" stroke-width="1.51"/><path d="M1340,84L1226,268L1416,163Z" fill="#55239e" stroke="#55239e" stroke-width="1.51"/><path d="M1226,268L1293,338L1368,328Z" fill="#5825a2" stroke="#5825a2" stroke-width="1.51"/><path d="M1308,1095L1375,1209L1401,1112Z" fill="#6e36bf" stroke="#6e36bf" stroke-width="1.51"/><path d="M1208,790L1303,855L1305,673Z" fill="#642db0" stroke="#642db0" stroke-width="1.51"/><path d="M1308,1095L1330,1231L1375,1209Z" fill="#7036bf" stroke="#7036bf" stroke-width="1.51"/><path d="M1235,-37L1340,84L1380,-19Z" fill="#512099" stroke="#512099" stroke-width="1.51"/><path d="M1246,669L1305,673L1349,510Z" fill="#602bac" stroke="#602bac" stroke-width="1.51"/><path d="M1182,595L1246,669L1349,510Z" fill="#5f2aaa" stroke="#5f2aaa" stroke-width="1.51"/><path d="M1293,338L1180,472L1349,510Z" fill="#5b27a6" stroke="#5b27a6" stroke-width="1.51"/><path d="M1104,102L1226,268L1340,84Z" fill="#53219b" stroke="#53219b" stroke-width="1.51"/><path d="M1180,472L1182,595L1349,510Z" fill="#5d28a7" stroke="#5d28a7" stroke-width="1.51"/><path d="M1246,669L1208,790L1305,673Z" fill="#622cae" stroke="#622cae" stroke-width="1.51"/><path d="M1150,964L1308,1095L1324,958Z" fill="#6a32b8" stroke="#6a32b8" stroke-width="1.51"/><path d="M1308,1095L1209,1305L1330,1231Z" fill="#6f37bf" stroke="#6f37bf" stroke-width="1.51"/><path d="M1235,-37L1104,102L1340,84Z" fill="#511f98" stroke="#511f98" stroke-width="1.51"/><path d="M1104,102L1113,214L1226,268Z" fill="#53219b" stroke="#53219b" stroke-width="1.51"/><path d="M1104,1075L1209,1305L1308,1095Z" fill="#6d35bc" stroke="#6d35bc" stroke-width="1.51"/><path d="M1165,-229L1235,-37L1322,-196Z" fill="#4c1c92" stroke="#4c1c92" stroke-width="1.51"/><path d="M1303,855L1150,964L1324,958Z" fill="#6730b5" stroke="#6730b5" stroke-width="1.51"/><path d="M1208,790L1150,964L1303,855Z" fill="#662fb2" stroke="#662fb2" stroke-width="1.51"/><path d="M1150,964L1104,1075L1308,1095Z" fill="#6932b7" stroke="#6932b7" stroke-width="1.51"/><path d="M1165,-229L1125,-70L1235,-37Z" fill="#4c1b92" stroke="#4c1b92" stroke-width="1.51"/><path d="M1144,331L1180,472L1293,338Z" fill="#5926a2" stroke="#5926a2" stroke-width="1.51"/><path d="M1226,268L1144,331L1293,338Z" fill="#5724a0" stroke="#5724a0" stroke-width="1.51"/><path d="M835,-181L1066,-173L1165,-229Z" fill="#47188c" stroke="#47188c" stroke-width="1.51"/><path d="M1101,902L1150,964L1208,790Z" fill="#642eb1" stroke="#642eb1" stroke-width="1.51"/><path d="M1104,1075L1013,1307L1209,1305Z" fill="#6d34bc" stroke="#6d34bc" stroke-width="1.51"/><path d="M1125,-70L1104,102L1235,-37Z" fill="#4e1d95" stroke="#4e1d95" stroke-width="1.51"/><path d="M1182,595L1208,790L1246,669Z" fill="#612cac" stroke="#612cac" stroke-width="1.51"/><path d="M1182,595L970,742L1208,790Z" fill="#5f2bab" stroke="#5f2bab" stroke-width="1.51"/><path d="M1066,-173L1125,-70L1165,-229Z" fill="#4a198f" stroke="#4a198f" stroke-width="1.51"/><path d="M1113,214L1144,331L1226,268Z" fill="#55239e" stroke="#55239e" stroke-width="1.51"/><path d="M970,742L989,835L1208,790Z" fill="#602bac" stroke="#602bac" stroke-width="1.51"/><path d="M989,835L1101,902L1208,790Z" fill="#622daf" stroke="#622daf" stroke-width="1.51"/><path d="M911,1259L632,1280L1013,1307Z" fill="#6a32b8" stroke="#6a32b8" stroke-width="1.51"/><path d="M1113,214L1080,290L1144,331Z" fill="#55229d" stroke="#55229d" stroke-width="1.51"/><path d="M1144,331L1030,434L1180,472Z" fill="#5825a1" stroke="#5825a1" stroke-width="1.51"/><path d="M1030,434L1023,553L1180,472Z" fill="#5925a3" stroke="#5925a3" stroke-width="1.51"/><path d="M1023,553L970,742L1182,595Z" fill="#5c29a7" stroke="#5c29a7" stroke-width="1.51"/><path d="M1180,472L1023,553L1182,595Z" fill="#5b28a5" stroke="#5b28a5" stroke-width="1.51"/><path d="M1057,1061L1013,1307L1104,1075Z" fill="#6a32b8" stroke="#6a32b8" stroke-width="1.51"/><path d="M972,3L1104,102L1125,-70Z" fill="#4d1c93" stroke="#4d1c93" stroke-width="1.51"/><path d="M1057,1061L1104,1075L1150,964Z" fill="#6831b5" stroke="#6831b5" stroke-width="1.51"/><path d="M1104,102L1051,179L1113,214Z" fill="#512099" stroke="#512099" stroke-width="1.51"/><path d="M1080,290L1030,434L1144,331Z" fill="#56239e" stroke="#56239e" stroke-width="1.51"/><path d="M1101,902L1005,975L1150,964Z" fill="#652eb2" stroke="#652eb2" stroke-width="1.51"/><path d="M1005,975L1057,1061L1150,964Z" fill="#662fb3" stroke="#662fb3" stroke-width="1.51"/><path d="M922,668L970,742L1023,553Z" fill="#5c28a6" stroke="#5c28a6" stroke-width="1.51"/><path d="M911,1259L1013,1307L1057,1061Z" fill="#6a33b9" stroke="#6a33b9" stroke-width="1.51"/><path d="M1066,-173L972,3L1125,-70Z" fill="#4b1a90" stroke="#4b1a90" stroke-width="1.51"/><path d="M972,3L1013,125L1104,102Z" fill="#4e1d95" stroke="#4e1d95" stroke-width="1.51"/><path d="M1051,179L1080,290L1113,214Z" fill="#53219a" stroke="#53219a" stroke-width="1.51"/><path d="M883,1084L911,1259L1057,1061Z" fill="#6731b5" stroke="#6731b5" stroke-width="1.51"/><path d="M1013,125L1051,179L1104,102Z" fill="#501f97" stroke="#501f97" stroke-width="1.51"/><path d="M934,311L1030,434L1080,290Z" fill="#55239d" stroke="#55239d" stroke-width="1.51"/><path d="M989,835L1005,975L1101,902Z" fill="#632daf" stroke="#632daf" stroke-width="1.51"/><path d="M797,1234L632,1280L911,1259Z" fill="#6831b6" stroke="#6831b6" stroke-width="1.51"/><path d="M1051,179L934,311L1080,290Z" fill="#53219a" stroke="#53219a" stroke-width="1.51"/><path d="M845,-73L972,3L1066,-173Z" fill="#49198e" stroke="#49198e" stroke-width="1.51"/><path d="M835,-181L845,-73L1066,-173Z" fill="#47178b" stroke="#47178b" stroke-width="1.51"/><path d="M867,213L934,311L1051,179Z" fill="#501f98" stroke="#501f98" stroke-width="1.51"/><path d="M1005,975L883,1084L1057,1061Z" fill="#652fb3" stroke="#652fb3" stroke-width="1.51"/><path d="M970,742L956,808L989,835Z" fill="#5f2aab" stroke="#5f2aab" stroke-width="1.51"/><path d="M1013,125L867,213L1051,179Z" fill="#4f1f97" stroke="#4f1f97" stroke-width="1.51"/><path d="M890,530L922,668L1023,553Z" fill="#5926a3" stroke="#5926a3" stroke-width="1.51"/><path d="M934,311L828,420L1030,434Z" fill="#54229c" stroke="#54229c" stroke-width="1.51"/><path d="M828,420L890,530L1030,434Z" fill="#56239e" stroke="#56239e" stroke-width="1.51"/><path d="M890,530L1023,553L1030,434Z" fill="#5825a1" stroke="#5825a1" stroke-width="1.51"/><path d="M989,835L835,958L1005,975Z" fill="#622cae" stroke="#622cae" stroke-width="1.51"/><path d="M972,3L836,98L1013,125Z" fill="#4d1c92" stroke="#4d1c92" stroke-width="1.51"/><path d="M836,98L867,213L1013,125Z" fill="#4e1d94" stroke="#4e1d94" stroke-width="1.51"/><path d="M956,808L835,958L989,835Z" fill="#602bac" stroke="#602bac" stroke-width="1.51"/><path d="M835,958L883,1084L1005,975Z" fill="#642db0" stroke="#642db0" stroke-width="1.51"/><path d="M853,785L835,958L956,808Z" fill="#5f2aaa" stroke="#5f2aaa" stroke-width="1.51"/><path d="M853,785L956,808L970,742Z" fill="#5e2aa9" stroke="#5e2aa9" stroke-width="1.51"/><path d="M845,-73L836,98L972,3Z" fill="#4a1a8f" stroke="#4a1a8f" stroke-width="1.51"/><path d="M922,668L853,785L970,742Z" fill="#5c29a7" stroke="#5c29a7" stroke-width="1.51"/><path d="M883,1084L810,1109L911,1259Z" fill="#6730b4" stroke="#6730b4" stroke-width="1.51"/><path d="M810,1109L797,1234L911,1259Z" fill="#6830b5" stroke="#6830b5" stroke-width="1.51"/><path d="M890,530L789,617L922,668Z" fill="#5926a2" stroke="#5926a2" stroke-width="1.51"/><path d="M867,213L828,420L934,311Z" fill="#512099" stroke="#512099" stroke-width="1.51"/><path d="M757,734L853,785L922,668Z" fill="#5b28a5" stroke="#5b28a5" stroke-width="1.51"/><path d="M789,617L757,734L922,668Z" fill="#5926a3" stroke="#5926a3" stroke-width="1.51"/><path d="M803,-70L836,98L845,-73Z" fill="#48198d" stroke="#48198d" stroke-width="1.51"/><path d="M710,376L828,420L867,213Z" fill="#511f98" stroke="#511f98" stroke-width="1.51"/><path d="M727,917L835,958L853,785Z" fill="#5f2aaa" stroke="#5f2aaa" stroke-width="1.51"/><path d="M680,270L710,376L867,213Z" fill="#4f1e95" stroke="#4f1e95" stroke-width="1.51"/><path d="M835,958L810,1109L883,1084Z" fill="#642db0" stroke="#642db0" stroke-width="1.51"/><path d="M828,420L789,617L890,530Z" fill="#56239f" stroke="#56239f" stroke-width="1.51"/><path d="M643,-176L731,-143L835,-181Z" fill="#431486" stroke="#431486" stroke-width="1.51"/><path d="M803,-70L779,107L836,98Z" fill="#4a198f" stroke="#4a198f" stroke-width="1.51"/><path d="M836,98L779,107L867,213Z" fill="#4c1c92" stroke="#4c1c92" stroke-width="1.51"/><path d="M723,1043L810,1109L835,958Z" fill="#622daf" stroke="#622daf" stroke-width="1.51"/><path d="M835,-181L803,-70L845,-73Z" fill="#46178a" stroke="#46178a" stroke-width="1.51"/><path d="M722,185L680,270L867,213Z" fill="#4d1d93" stroke="#4d1d93" stroke-width="1.51"/><path d="M779,107L722,185L867,213Z" fill="#4c1c92" stroke="#4c1c92" stroke-width="1.51"/><path d="M710,376L789,617L828,420Z" fill="#54219c" stroke="#54219c" stroke-width="1.51"/><path d="M731,-143L803,-70L835,-181Z" fill="#451689" stroke="#451689" stroke-width="1.51"/><path d="M757,734L727,917L853,785Z" fill="#5d28a7" stroke="#5d28a7" stroke-width="1.51"/><path d="M166,1250L36,1268L401,1284Z" fill="#5e2aa9" stroke="#5e2aa9" stroke-width="1.51"/><path d="M710,376L694,634L789,617Z" fill="#55229d" stroke="#55229d" stroke-width="1.51"/><path d="M607,428L694,634L710,376Z" fill="#52219a" stroke="#52219a" stroke-width="1.51"/><path d="M727,917L723,1043L835,958Z" fill="#602bac" stroke="#602bac" stroke-width="1.51"/><path d="M581,-23L779,107L803,-70Z" fill="#47188c" stroke="#47188c" stroke-width="1.51"/><path d="M694,634L757,734L789,617Z" fill="#5825a1" stroke="#5825a1" stroke-width="1.51"/><path d="M723,1043L573,1136L797,1234Z" fill="#632db0" stroke="#632db0" stroke-width="1.51"/><path d="M573,1136L632,1280L797,1234Z" fill="#652eb2" stroke="#652eb2" stroke-width="1.51"/><path d="M723,1043L797,1234L810,1109Z" fill="#652eb1" stroke="#652eb1" stroke-width="1.51"/><path d="M581,-23L580,80L779,107Z" fill="#47188c" stroke="#47188c" stroke-width="1.51"/><path d="M731,-143L581,-23L803,-70Z" fill="#451589" stroke="#451589" stroke-width="1.51"/><path d="M574,823L727,917L757,734Z" fill="#5b27a5" stroke="#5b27a5" stroke-width="1.51"/><path d="M670,1024L723,1043L727,917Z" fill="#602bab" stroke="#602bab" stroke-width="1.51"/><path d="M628,713L574,823L757,734Z" fill="#5926a2" stroke="#5926a2" stroke-width="1.51"/><path d="M580,80L722,185L779,107Z" fill="#4a1a8f" stroke="#4a1a8f" stroke-width="1.51"/><path d="M670,1024L573,1136L723,1043Z" fill="#612bad" stroke="#612bad" stroke-width="1.51"/><path d="M694,634L628,713L757,734Z" fill="#5825a1" stroke="#5825a1" stroke-width="1.51"/><path d="M607,428L549,468L694,634Z" fill="#522099" stroke="#522099" stroke-width="1.51"/><path d="M680,270L624,349L710,376Z" fill="#4f1e95" stroke="#4f1e95" stroke-width="1.51"/><path d="M643,-176L581,-23L731,-143Z" fill="#431487" stroke="#431487" stroke-width="1.51"/><path d="M574,823L670,1024L727,917Z" fill="#5d29a8" stroke="#5d29a8" stroke-width="1.51"/><path d="M580,80L680,270L722,185Z" fill="#4b1a90" stroke="#4b1a90" stroke-width="1.51"/><path d="M624,349L607,428L710,376Z" fill="#501e96" stroke="#501e96" stroke-width="1.51"/><path d="M497,126L505,265L580,80Z" fill="#48188d" stroke="#48188d" stroke-width="1.51"/><path d="M574,823L558,1053L670,1024Z" fill="#5e29a8" stroke="#5e29a8" stroke-width="1.51"/><path d="M558,1053L573,1136L670,1024Z" fill="#602bac" stroke="#602bac" stroke-width="1.51"/><path d="M580,80L505,265L680,270Z" fill="#4a1a8f" stroke="#4a1a8f" stroke-width="1.51"/><path d="M549,468L628,713L694,634Z" fill="#54229d" stroke="#54229d" stroke-width="1.51"/><path d="M549,468L445,667L628,713Z" fill="#54219b" stroke="#54219b" stroke-width="1.51"/><path d="M505,265L624,349L680,270Z" fill="#4d1c92" stroke="#4d1c92" stroke-width="1.51"/><path d="M551,755L574,823L628,713Z" fill="#5825a1" stroke="#5825a1" stroke-width="1.51"/><path d="M539,815L400,913L558,1053Z" fill="#5b27a5" stroke="#5b27a5" stroke-width="1.51"/><path d="M539,815L558,1053L574,823Z" fill="#5b27a5" stroke="#5b27a5" stroke-width="1.51"/><path d="M445,667L551,755L628,713Z" fill="#56239e" stroke="#56239e" stroke-width="1.51"/><path d="M573,1136L485,1302L632,1280Z" fill="#642eb0" stroke="#642eb0" stroke-width="1.51"/><path d="M470,-99L581,-23L643,-176Z" fill="#421385" stroke="#421385" stroke-width="1.51"/><path d="M453,-219L470,-99L643,-176Z" fill="#401182" stroke="#401182" stroke-width="1.51"/><path d="M473,280L549,468L607,428Z" fill="#4e1d94" stroke="#4e1d94" stroke-width="1.51"/><path d="M473,280L607,428L624,349Z" fill="#4d1d93" stroke="#4d1d93" stroke-width="1.51"/><path d="M505,265L473,280L624,349Z" fill="#4c1b91" stroke="#4c1b91" stroke-width="1.51"/><path d="M400,913L394,992L558,1053Z" fill="#5c28a5" stroke="#5c28a5" stroke-width="1.51"/><path d="M558,1053L463,1116L573,1136Z" fill="#602aab" stroke="#602aab" stroke-width="1.51"/><path d="M463,1116L485,1302L573,1136Z" fill="#622cae" stroke="#622cae" stroke-width="1.51"/><path d="M551,755L539,815L574,823Z" fill="#5825a2" stroke="#5825a2" stroke-width="1.51"/><path d="M497,126L580,80L581,-23Z" fill="#46168a" stroke="#46168a" stroke-width="1.51"/><path d="M470,-99L497,126L581,-23Z" fill="#441487" stroke="#441487" stroke-width="1.51"/><path d="M470,-99L390,113L497,126Z" fill="#441587" stroke="#441587" stroke-width="1.51"/><path d="M304,568L445,667L549,468Z" fill="#501f98" stroke="#501f98" stroke-width="1.51"/><path d="M473,280L326,417L549,468Z" fill="#4c1c92" stroke="#4c1c92" stroke-width="1.51"/><path d="M394,992L463,1116L558,1053Z" fill="#5d29a8" stroke="#5d29a8" stroke-width="1.51"/><path d="M463,1116L401,1284L485,1302Z" fill="#622cad" stroke="#622cad" stroke-width="1.51"/><path d="M326,417L304,568L549,468Z" fill="#4e1d94" stroke="#4e1d94" stroke-width="1.51"/><path d="M445,667L539,815L551,755Z" fill="#56239f" stroke="#56239f" stroke-width="1.51"/><path d="M445,667L358,718L539,815Z" fill="#55239d" stroke="#55239d" stroke-width="1.51"/><path d="M358,718L400,913L539,815Z" fill="#5724a0" stroke="#5724a0" stroke-width="1.51"/><path d="M322,-42L390,113L470,-99Z" fill="#411384" stroke="#411384" stroke-width="1.51"/><path d="M390,113L318,221L473,280Z" fill="#47178b" stroke="#47178b" stroke-width="1.51"/><path d="M338,289L326,417L473,280Z" fill="#491a8e" stroke="#491a8e" stroke-width="1.51"/><path d="M390,113L473,280L497,126Z" fill="#47178b" stroke="#47178b" stroke-width="1.51"/><path d="M497,126L473,280L505,265Z" fill="#49198e" stroke="#49198e" stroke-width="1.51"/><path d="M320,1141L401,1284L463,1116Z" fill="#602aab" stroke="#602aab" stroke-width="1.51"/><path d="M304,568L357,668L445,667Z" fill="#512098" stroke="#512098" stroke-width="1.51"/><path d="M453,-219L377,-227L470,-99Z" fill="#3e0f80" stroke="#3e0f80" stroke-width="1.51"/><path d="M318,221L338,289L473,280Z" fill="#48188c" stroke="#48188c" stroke-width="1.51"/><path d="M-121,-205L56,-122L377,-227Z" fill="#380a79" stroke="#380a79" stroke-width="1.51"/><path d="M358,718L286,798L400,913Z" fill="#55239e" stroke="#55239e" stroke-width="1.51"/><path d="M377,-227L301,-131L470,-99Z" fill="#3d107f" stroke="#3d107f" stroke-width="1.51"/><path d="M394,992L320,1141L463,1116Z" fill="#5d29a8" stroke="#5d29a8" stroke-width="1.51"/><path d="M301,-131L322,-42L470,-99Z" fill="#3f1081" stroke="#3f1081" stroke-width="1.51"/><path d="M306,1024L320,1141L394,992Z" fill="#5b27a6" stroke="#5b27a6" stroke-width="1.51"/><path d="M357,668L358,718L445,667Z" fill="#53219a" stroke="#53219a" stroke-width="1.51"/><path d="M293,317L326,417L338,289Z" fill="#49198e" stroke="#49198e" stroke-width="1.51"/><path d="M56,-122L172,-108L377,-227Z" fill="#3b0d7c" stroke="#3b0d7c" stroke-width="1.51"/><path d="M285,180L318,221L390,113Z" fill="#451688" stroke="#451688" stroke-width="1.51"/><path d="M322,-42L273,16L390,113Z" fill="#421384" stroke="#421384" stroke-width="1.51"/><path d="M306,1024L394,992L400,913Z" fill="#5a26a4" stroke="#5a26a4" stroke-width="1.51"/><path d="M286,798L277,814L400,913Z" fill="#55239e" stroke="#55239e" stroke-width="1.51"/><path d="M320,1141L226,1194L401,1284Z" fill="#5f2aaa" stroke="#5f2aaa" stroke-width="1.51"/><path d="M226,1194L166,1250L401,1284Z" fill="#5f2aaa" stroke="#5f2aaa" stroke-width="1.51"/><path d="M277,814L306,1024L400,913Z" fill="#5824a1" stroke="#5824a1" stroke-width="1.51"/><path d="M273,16L285,180L390,113Z" fill="#431486" stroke="#431486" stroke-width="1.51"/><path d="M306,1024L269,1065L320,1141Z" fill="#5b27a5" stroke="#5b27a5" stroke-width="1.51"/><path d="M172,-108L301,-131L377,-227Z" fill="#3c0e7d" stroke="#3c0e7d" stroke-width="1.51"/><path d="M277,814L171,848L306,1024Z" fill="#56239e" stroke="#56239e" stroke-width="1.51"/><path d="M272,417L304,568L326,417Z" fill="#4c1b91" stroke="#4c1b91" stroke-width="1.51"/><path d="M161,760L286,798L357,668Z" fill="#52209a" stroke="#52209a" stroke-width="1.51"/><path d="M357,668L286,798L358,718Z" fill="#53219a" stroke="#53219a" stroke-width="1.51"/><path d="M304,568L161,760L357,668Z" fill="#501f97" stroke="#501f97" stroke-width="1.51"/><path d="M273,16L209,25L285,180Z" fill="#411384" stroke="#411384" stroke-width="1.51"/><path d="M293,317L272,417L326,417Z" fill="#4a1a8f" stroke="#4a1a8f" stroke-width="1.51"/><path d="M318,221L293,317L338,289Z" fill="#47188c" stroke="#47188c" stroke-width="1.51"/><path d="M75,650L161,760L304,568Z" fill="#4f1d95" stroke="#4f1d95" stroke-width="1.51"/><path d="M272,417L136,507L304,568Z" fill="#4c1b91" stroke="#4c1b91" stroke-width="1.51"/><path d="M301,-131L172,-108L322,-42Z" fill="#3d0f7f" stroke="#3d0f7f" stroke-width="1.51"/><path d="M285,180L293,317L318,221Z" fill="#46178a" stroke="#46178a" stroke-width="1.51"/><path d="M172,-108L273,16L322,-42Z" fill="#3e1080" stroke="#3e1080" stroke-width="1.51"/><path d="M171,848L269,1065L306,1024Z" fill="#5824a1" stroke="#5824a1" stroke-width="1.51"/><path d="M269,1065L226,1194L320,1141Z" fill="#5c28a6" stroke="#5c28a6" stroke-width="1.51"/><path d="M171,848L143,1077L269,1065Z" fill="#5724a0" stroke="#5724a0" stroke-width="1.51"/><path d="M172,-108L209,25L273,16Z" fill="#3e1080" stroke="#3e1080" stroke-width="1.51"/><path d="M209,25L151,152L285,180Z" fill="#421384" stroke="#421384" stroke-width="1.51"/><path d="M285,180L151,152L293,317Z" fill="#451588" stroke="#451588" stroke-width="1.51"/><path d="M136,507L75,650L304,568Z" fill="#4d1c92" stroke="#4d1c92" stroke-width="1.51"/><path d="M92,374L272,417L293,317Z" fill="#48188d" stroke="#48188d" stroke-width="1.51"/><path d="M151,152L92,374L293,317Z" fill="#451689" stroke="#451689" stroke-width="1.51"/><path d="M143,1077L226,1194L269,1065Z" fill="#5b27a4" stroke="#5b27a4" stroke-width="1.51"/><path d="M161,760L277,814L286,798Z" fill="#53219b" stroke="#53219b" stroke-width="1.51"/><path d="M54,980L143,1077L171,848Z" fill="#56239e" stroke="#56239e" stroke-width="1.51"/><path d="M161,760L171,848L277,814Z" fill="#53219b" stroke="#53219b" stroke-width="1.51"/><path d="M92,374L136,507L272,417Z" fill="#48198d" stroke="#48198d" stroke-width="1.51"/><path d="M26,191L92,374L151,152Z" fill="#431486" stroke="#431486" stroke-width="1.51"/><path d="M172,-108L136,37L209,25Z" fill="#3e1080" stroke="#3e1080" stroke-width="1.51"/><path d="M136,37L151,152L209,25Z" fill="#3f1182" stroke="#3f1182" stroke-width="1.51"/><path d="M143,1077L166,1250L226,1194Z" fill="#5c27a6" stroke="#5c27a6" stroke-width="1.51"/><path d="M39,935L54,980L171,848Z" fill="#54219b" stroke="#54219b" stroke-width="1.51"/><path d="M23,568L75,650L136,507Z" fill="#4b1a90" stroke="#4b1a90" stroke-width="1.51"/><path d="M143,1077L25,1109L166,1250Z" fill="#5a26a3" stroke="#5a26a3" stroke-width="1.51"/><path d="M25,1109L36,1268L166,1250Z" fill="#5b27a5" stroke="#5b27a5" stroke-width="1.51"/><path d="M161,760L17,772L171,848Z" fill="#511f98" stroke="#511f98" stroke-width="1.51"/><path d="M47,-115L136,37L172,-108Z" fill="#3c0e7d" stroke="#3c0e7d" stroke-width="1.51"/><path d="M56,-122L47,-115L172,-108Z" fill="#3a0c7b" stroke="#3a0c7b" stroke-width="1.51"/><path d="M17,772L39,935L171,848Z" fill="#521f9a" stroke="#521f9a" stroke-width="1.51"/><path d="M92,374L38,405L136,507Z" fill="#47188c" stroke="#47188c" stroke-width="1.51"/><path d="M136,37L10,90L151,152Z" fill="#3f1182" stroke="#3f1182" stroke-width="1.51"/><path d="M75,650L17,772L161,760Z" fill="#4f1e95" stroke="#4f1e95" stroke-width="1.51"/><path d="M38,405L28,483L136,507Z" fill="#48188c" stroke="#48188c" stroke-width="1.51"/><path d="M10,90L26,191L151,152Z" fill="#401182" stroke="#401182" stroke-width="1.51"/><path d="M47,-115L-51,-1L136,37Z" fill="#3c0d7c" stroke="#3c0d7c" stroke-width="1.51"/><path d="M-51,-1L10,90L136,37Z" fill="#3d0f7e" stroke="#3d0f7e" stroke-width="1.51"/><path d="M54,980L25,1109L143,1077Z" fill="#5723a0" stroke="#5723a0" stroke-width="1.51"/><path d="M28,483L23,568L136,507Z" fill="#49198e" stroke="#49198e" stroke-width="1.51"/><path d="M-121,-205L47,-115L56,-122Z" fill="#380a78" stroke="#380a78" stroke-width="1.51"/><path d="M26,191L38,405L92,374Z" fill="#441588" stroke="#441588" stroke-width="1.51"/><path d="M-182,257L-84,431L26,191Z" fill="#411284" stroke="#411284" stroke-width="1.51"/><path d="M26,191L-84,431L38,405Z" fill="#441487" stroke="#441487" stroke-width="1.51"/><path d="M17,772L-78,846L39,935Z" fill="#511e97" stroke="#511e97" stroke-width="1.51"/><path d="M23,568L17,772L75,650Z" fill="#4c1b92" stroke="#4c1b92" stroke-width="1.51"/><path d="M-182,696L17,772L23,568Z" fill="#4b1b91" stroke="#4b1b91" stroke-width="1.51"/><path d="M25,1109L-124,1207L36,1268Z" fill="#5825a2" stroke="#5825a2" stroke-width="1.51"/><path d="M-152,979L25,1109L54,980Z" fill="#54229d" stroke="#54229d" stroke-width="1.51"/><path d="M39,935L-152,979L54,980Z" fill="#53219b" stroke="#53219b" stroke-width="1.51"/><path d="M-152,979L-166,1066L25,1109Z" fill="#54219c" stroke="#54219c" stroke-width="1.51"/><path d="M-121,-205L-51,-1L47,-115Z" fill="#390b78" stroke="#390b78" stroke-width="1.51"/><path d="M-177,555L-182,696L23,568Z" fill="#48198d" stroke="#48198d" stroke-width="1.51"/><path d="M-84,431L28,483L38,405Z" fill="#46168a" stroke="#46168a" stroke-width="1.51"/><path d="M-78,846L-152,979L39,935Z" fill="#511f98" stroke="#511f98" stroke-width="1.51"/><path d="M-84,431L-177,555L23,568Z" fill="#47178b" stroke="#47178b" stroke-width="1.51"/><path d="M10,90L-163,73L26,191Z" fill="#3d0f7f" stroke="#3d0f7f" stroke-width="1.51"/><path d="M-84,431L23,568L28,483Z" fill="#47178c" stroke="#47178c" stroke-width="1.51"/><path d="M-163,73L-182,257L26,191Z" fill="#3d1080" stroke="#3d1080" stroke-width="1.51"/><path d="M-166,1066L-124,1207L25,1109Z" fill="#56239f" stroke="#56239f" stroke-width="1.51"/><path d="M-182,696L-78,846L17,772Z" fill="#4d1c93" stroke="#4d1c93" stroke-width="1.51"/><path d="M-51,-1L-163,73L10,90Z" fill="#3b0e7d" stroke="#3b0e7d" stroke-width="1.51"/><path d="M-182,257L-198,372L-84,431Z" fill="#411384" stroke="#411384" stroke-width="1.51"/><path d="M-138,869L-152,979L-78,846Z" fill="#501e97" stroke="#501e97" stroke-width="1.51"/><path d="M-182,696L-138,869L-78,846Z" fill="#4d1c93" stroke="#4d1c93" stroke-width="1.51"/><path d="M-121,-205L-181,-22L-51,-1Z" fill="#380978" stroke="#380978" stroke-width="1.51"/><path d="M-181,-22L-163,73L-51,-1Z" fill="#3a0c7a" stroke="#3a0c7a" stroke-width="1.51"/><path d="M-198,372L-177,555L-84,431Z" fill="#441587" stroke="#441587" stroke-width="1.51"/><path d="M-182,696L-152,979L-138,869Z" fill="#4e1c94" stroke="#4e1c94" stroke-width="1.51"/><path d="M-182,696L-166,1066L-152,979Z" fill="#4f1e96" stroke="#4f1e96" stroke-width="1.51"/><path d="M-181,-22L-182,257L-163,73Z" fill="#3b0d7c" stroke="#3b0d7c" stroke-width="1.51"/><path d="M-198,372L-182,257L-181,-22Z" fill="#3d0f7f" stroke="#3d0f7f" stroke-width="1.51"/><path d="M-198,372L-182,696L-177,555Z" fill="#46168a" stroke="#46168a" stroke-width="1.51"/></svg>