<svg xmlns="http://www.w3.org/2000/svg" width="800" height="400"><path d="M14,-185L438,-184L563,-214Z" fill="#a5735e" stroke="#a5735e" stroke-width="1.51"/><path d="M573,572L402,603L835,573Z" fill="#935f64" stroke="#935f64" stroke-width="1.51"/><path d="M824,-112L864,-37L987,-201Z" fill="#763f6a" stroke="#763f6a" stroke-width="1.51"/><path d="M987,-201L864,-37L1001,29Z" fill="#774169" stroke="#774169" stroke-width="1.51"/><path d="M949,81L811,169L1017,230Z" fill="#af7f5b" stroke="#af7f5b" stroke-width="1.51"/><path d="M811,169L842,310L1017,230Z" fill="#b48659" stroke="#b48659" stroke-width="1.51"/><path d="M842,310L957,385L1017,230Z" fill="#9e6b60" stroke="#9e6b60" stroke-width="1.51"/><path d="M1001,29L949,81L1017,230Z" fill="#9c6861" stroke="#9c6861" stroke-width="1.51"/><path d="M987,-201L1001,29L1017,230Z" fill="#854f67" stroke="#854f67" stroke-width="1.51"/><path d="M957,385L961,511L1017,230Z" fill="#895466" stroke="#895466" stroke-width="1.51"/><path d="M864,-37L949,81L1001,29Z" fill="#8f5b64" stroke="#8f5b64" stroke-width="1.51"/><path d="M740,-210L824,-112L987,-201Z" fill="#6e386b" stroke="#6e386b" stroke-width="1.51"/><path d="M957,385L792,441L961,511Z" fill="#854f67" stroke="#854f67" stroke-width="1.51"/><path d="M792,441L835,573L961,511Z" fill="#7c4669" stroke="#7c4669" stroke-width="1.51"/><path d="M842,310L792,441L957,385Z" fill="#9a6662" stroke="#9a6662" stroke-width="1.51"/><path d="M864,-37L811,169L949,81Z" fill="#a2715f" stroke="#a2715f" stroke-width="1.51"/><path d="M672,527L573,572L835,573Z" fill="#8b5665" stroke="#8b5665" stroke-width="1.51"/><path d="M715,387L792,441L842,310Z" fill="#a5745e" stroke="#a5745e" stroke-width="1.51"/><path d="M811,169L693,224L842,310Z" fill="#c49951" stroke="#c49951" stroke-width="1.51"/><path d="M732,141L811,169L864,-37Z" fill="#b2825a" stroke="#b2825a" stroke-width="1.51"/><path d="M824,-112L642,-35L864,-37Z" fill="#946064" stroke="#946064" stroke-width="1.51"/><path d="M642,-35L732,141L864,-37Z" fill="#ab7a5c" stroke="#ab7a5c" stroke-width="1.51"/><path d="M14,-185L234,-147L438,-184Z" fill="#9a6661" stroke="#9a6661" stroke-width="1.51"/><path d="M792,441L672,527L835,573Z" fill="#8a5566" stroke="#8a5566" stroke-width="1.51"/><path d="M693,224L715,387L842,310Z" fill="#b98c56" stroke="#b98c56" stroke-width="1.51"/><path d="M740,-210L642,-35L824,-112Z" fill="#8d5865" stroke="#8d5865" stroke-width="1.51"/><path d="M732,141L693,224L811,169Z" fill="#cca34d" stroke="#cca34d" stroke-width="1.51"/><path d="M715,387L672,527L792,441Z" fill="#9e6a61" stroke="#9e6a61" stroke-width="1.51"/><path d="M98,519L-173,566L402,603Z" fill="#8a5566" stroke="#8a5566" stroke-width="1.51"/><path d="M693,224L592,292L715,387Z" fill="#c69c50" stroke="#c69c50" stroke-width="1.51"/><path d="M642,-35L561,15L732,141Z" fill="#bd9055" stroke="#bd9055" stroke-width="1.51"/><path d="M561,15L585,157L732,141Z" fill="#cda44d" stroke="#cda44d" stroke-width="1.51"/><path d="M563,-214L642,-35L740,-210Z" fill="#935f64" stroke="#935f64" stroke-width="1.51"/><path d="M555,414L672,527L715,387Z" fill="#ab7a5d" stroke="#ab7a5d" stroke-width="1.51"/><path d="M585,157L693,224L732,141Z" fill="#d5af47" stroke="#d5af47" stroke-width="1.51"/><path d="M592,292L555,414L715,387Z" fill="#c09354" stroke="#c09354" stroke-width="1.51"/><path d="M585,157L592,292L693,224Z" fill="#dcb842" stroke="#dcb842" stroke-width="1.51"/><path d="M555,414L573,572L672,527Z" fill="#a5735e" stroke="#a5735e" stroke-width="1.51"/><path d="M438,-184L561,15L563,-214Z" fill="#ab7a5c" stroke="#ab7a5c" stroke-width="1.51"/><path d="M563,-214L561,15L642,-35Z" fill="#ac7b5c" stroke="#ac7b5c" stroke-width="1.51"/><path d="M438,-184L378,-38L561,15Z" fill="#c09454" stroke="#c09454" stroke-width="1.51"/><path d="M555,414L402,603L573,572Z" fill="#ac7c5c" stroke="#ac7c5c" stroke-width="1.51"/><path d="M380,120L364,296L585,157Z" fill="#f7dc1e" stroke="#f7dc1e" stroke-width="1.51"/><path d="M561,15L380,120L585,157Z" fill="#dcb742" stroke="#dcb742" stroke-width="1.51"/><path d="M585,157L364,296L592,292Z" fill="#e6c538" stroke="#e6c538" stroke-width="1.51"/><path d="M364,296L555,414L592,292Z" fill="#d6b047" stroke="#d6b047" stroke-width="1.51"/><path d="M371,423L402,603L555,414Z" fill="#c09454" stroke="#c09454" stroke-width="1.51"/><path d="M364,296L371,423L555,414Z" fill="#d7b146" stroke="#d7b146" stroke-width="1.51"/><path d="M378,-38L380,120L561,15Z" fill="#d7b245" stroke="#d7b245" stroke-width="1.51"/><path d="M301,539L98,519L402,603Z" fill="#a4725f" stroke="#a4725f" stroke-width="1.51"/><path d="M371,423L301,539L402,603Z" fill="#b88a58" stroke="#b88a58" stroke-width="1.51"/><path d="M234,-147L378,-38L438,-184Z" fill="#b68858" stroke="#b68858" stroke-width="1.51"/><path d="M249,179L282,283L364,296Z" fill="#e7c638" stroke="#e7c638" stroke-width="1.51"/><path d="M364,296L292,426L371,423Z" fill="#d2ab49" stroke="#d2ab49" stroke-width="1.51"/><path d="M249,179L364,296L380,120Z" fill="#f5da23" stroke="#f5da23" stroke-width="1.51"/><path d="M378,-38L283,-2L380,120Z" fill="#d5ae47" stroke="#d5ae47" stroke-width="1.51"/><path d="M282,283L292,426L364,296Z" fill="#d8b245" stroke="#d8b245" stroke-width="1.51"/><path d="M292,426L301,539L371,423Z" fill="#bf9254" stroke="#bf9254" stroke-width="1.51"/><path d="M234,-147L283,-2L378,-38Z" fill="#bb8e56" stroke="#bb8e56" stroke-width="1.51"/><path d="M283,-2L249,179L380,120Z" fill="#deba40" stroke="#deba40" stroke-width="1.51"/><path d="M-67,518L-173,566L98,519Z" fill="#78426a" stroke="#78426a" stroke-width="1.51"/><path d="M14,-185L112,-126L234,-147Z" fill="#8e5965" stroke="#8e5965" stroke-width="1.51"/><path d="M124,141L249,179L283,-2Z" fill="#d4ac48" stroke="#d4ac48" stroke-width="1.51"/><path d="M118,5L124,141L283,-2Z" fill="#c19553" stroke="#c19553" stroke-width="1.51"/><path d="M282,283L111,325L292,426Z" fill="#caa14e" stroke="#caa14e" stroke-width="1.51"/><path d="M111,325L147,454L292,426Z" fill="#b88a57" stroke="#b88a57" stroke-width="1.51"/><path d="M292,426L147,454L301,539Z" fill="#b2835a" stroke="#b2835a" stroke-width="1.51"/><path d="M147,454L98,519L301,539Z" fill="#a2705f" stroke="#a2705f" stroke-width="1.51"/><path d="M234,-147L118,5L283,-2Z" fill="#b28359" stroke="#b28359" stroke-width="1.51"/><path d="M249,179L111,325L282,283Z" fill="#dab444" stroke="#dab444" stroke-width="1.51"/><path d="M112,-126L118,5L234,-147Z" fill="#a16f5f" stroke="#a16f5f" stroke-width="1.51"/><path d="M124,141L111,325L249,179Z" fill="#dcb742" stroke="#dcb742" stroke-width="1.51"/><path d="M-21,274L111,325L124,141Z" fill="#c99f4f" stroke="#c99f4f" stroke-width="1.51"/><path d="M111,325L-45,464L147,454Z" fill="#a5745f" stroke="#a5745f" stroke-width="1.51"/><path d="M-45,464L98,519L147,454Z" fill="#976363" stroke="#976363" stroke-width="1.51"/><path d="M112,-126L-22,-41L118,5Z" fill="#9d6961" stroke="#9d6961" stroke-width="1.51"/><path d="M-22,-41L-54,170L118,5Z" fill="#aa795d" stroke="#aa795d" stroke-width="1.51"/><path d="M-54,170L-21,274L124,141Z" fill="#caa04e" stroke="#caa04e" stroke-width="1.51"/><path d="M118,5L-54,170L124,141Z" fill="#be9155" stroke="#be9155" stroke-width="1.51"/><path d="M-21,274L-45,464L111,325Z" fill="#aa7a5d" stroke="#aa7a5d" stroke-width="1.51"/><path d="M14,-185L-22,-41L112,-126Z" fill="#895466" stroke="#895466" stroke-width="1.51"/><path d="M-45,464L-67,518L98,519Z" fill="#875167" stroke="#875167" stroke-width="1.51"/><path d="M-132,154L-54,170L-22,-41Z" fill="#a9785d" stroke="#a9785d" stroke-width="1.51"/><path d="M-193,9L-132,154L-22,-41Z" fill="#966263" stroke="#966263" stroke-width="1.51"/><path d="M-130,-115L-22,-41L14,-185Z" fill="#7e4869" stroke="#7e4869" stroke-width="1.51"/><path d="M-130,-115L-193,9L-22,-41Z" fill="#824c67" stroke="#824c67" stroke-width="1.51"/><path d="M-182,465L-45,464L-21,274Z" fill="#925e64" stroke="#925e64" stroke-width="1.51"/><path d="M-152,235L-182,465L-21,274Z" fill="#9d6a61" stroke="#9d6a61" stroke-width="1.51"/><path d="M-54,170L-152,235L-21,274Z" fill="#b88b57" stroke="#b88b57" stroke-width="1.51"/><path d="M-132,154L-152,235L-54,170Z" fill="#b68858" stroke="#b68858" stroke-width="1.51"/><path d="M-182,465L-67,518L-45,464Z" fill="#7d4768" stroke="#7d4768" stroke-width="1.51"/><path d="M-182,465L-173,566L-67,518Z" fill="#6d386b" stroke="#6d386b" stroke-width="1.51"/><path d="M-193,9L-152,235L-132,154Z" fill="#a4725e" stroke="#a4725e" stroke-width="1.51"/><path d="M-193,9L-182,465L-152,235Z" fill="#a8775d" stroke="#a8775d" stroke-width="1.51"/></svg>