<svg xmlns="http://www.w3.org/2000/svg" width="1920" height="1080"><path d="M461,-248L571,-241L865,-245Z" fill="#a57261" stroke="#a57261" stroke-width="1.51"/><path d="M919,1280L402,1333L1281,1313Z" fill="#b67ba1" stroke="#b67ba1" stroke-width="1.51"/><path d="M865,-245L1183,-232L1515,-235Z" fill="#6b2f84" stroke="#6b2f84" stroke-width="1.51"/><path d="M1281,1313L402,1333L1730,1334Z" fill="#975ab3" stroke="#975ab3" stroke-width="1.51"/><path d="M1515,-235L1625,-229L1793,-237Z" fill="#5e2895" stroke="#5e2895" stroke-width="1.51"/><path d="M461,-248L865,-245L2058,-259Z" fill="#703382" stroke="#703382" stroke-width="1.51"/><path d="M1515,-235L1793,-237L2058,-259Z" fill="#612e98" stroke="#612e98" stroke-width="1.51"/><path d="M865,-245L1515,-235L2058,-259Z" fill="#531c90" stroke="#531c90" stroke-width="1.51"/><path d="M1793,-237L1983,-224L2058,-259Z" fill="#68379c" stroke="#68379c" stroke-width="1.51"/><path d="M1970,365L2063,551L2093,342Z" fill="#be849b" stroke="#be849b" stroke-width="1.51"/><path d="M2058,-259L1983,-224L2098,-97Z" fill="#78459d" stroke="#78459d" stroke-width="1.51"/><path d="M1935,53L2088,131L2098,-97Z" fill="#a77196" stroke="#a77196" stroke-width="1.51"/><path d="M2088,131L2095,196L2098,-97Z" fill="#b37d95" stroke="#b37d95" stroke-width="1.51"/><path d="M2063,551L1959,664L2113,732Z" fill="#975ab1" stroke="#975ab1" stroke-width="1.51"/><path d="M2034,853L2056,1041L2113,732Z" fill="#7641c2" stroke="#7641c2" stroke-width="1.51"/><path d="M2093,342L2063,551L2113,732Z" fill="#ac70a8" stroke="#ac70a8" stroke-width="1.51"/><path d="M2095,196L2093,342L2113,732Z" fill="#c0879d" stroke="#c0879d" stroke-width="1.51"/><path d="M2098,-97L2095,196L2113,732Z" fill="#d5a28d" stroke="#d5a28d" stroke-width="1.51"/><path d="M2098,-97L2113,732L2140,1160Z" fill="#a367ae" stroke="#a367ae" stroke-width="1.51"/><path d="M1899,1126L2117,1274L2140,1160Z" fill="#8858cd" stroke="#8858cd" stroke-width="1.51"/><path d="M2056,1041L1899,1126L2140,1160Z" fill="#8351c9" stroke="#8351c9" stroke-width="1.51"/><path d="M2113,732L2056,1041L2140,1160Z" fill="#7e4bc6" stroke="#7e4bc6" stroke-width="1.51"/><path d="M2034,853L1986,1029L2056,1041Z" fill="#7a47c4" stroke="#7a47c4" stroke-width="1.51"/><path d="M1981,246L2093,342L2095,196Z" fill="#d5a18b" stroke="#d5a18b" stroke-width="1.51"/><path d="M1899,1126L1986,1340L2117,1274Z" fill="#8a5acd" stroke="#8a5acd" stroke-width="1.51"/><path d="M1959,664L2034,853L2113,732Z" fill="#8147b9" stroke="#8147b9" stroke-width="1.51"/><path d="M1986,1029L1899,1126L2056,1041Z" fill="#7e4bc7" stroke="#7e4bc7" stroke-width="1.51"/><path d="M1970,365L1971,566L2063,551Z" fill="#b174a2" stroke="#b174a2" stroke-width="1.51"/><path d="M1971,566L1959,664L2063,551Z" fill="#9f61aa" stroke="#9f61aa" stroke-width="1.51"/><path d="M1981,246L1970,365L2093,342Z" fill="#cd9590" stroke="#cd9590" stroke-width="1.51"/><path d="M2088,131L1981,246L2095,196Z" fill="#c8928f" stroke="#c8928f" stroke-width="1.51"/><path d="M1983,-224L1887,-90L2098,-97Z" fill="#834d9a" stroke="#834d9a" stroke-width="1.51"/><path d="M1887,-90L1935,53L2098,-97Z" fill="#965f97" stroke="#965f97" stroke-width="1.51"/><path d="M1928,875L1986,1029L2034,853Z" fill="#7540c1" stroke="#7540c1" stroke-width="1.51"/><path d="M1935,53L1981,246L2088,131Z" fill="#bd8690" stroke="#bd8690" stroke-width="1.51"/><path d="M1959,664L1928,875L2034,853Z" fill="#733bbb" stroke="#733bbb" stroke-width="1.51"/><path d="M1798,692L1786,844L1928,875Z" fill="#6b32b8" stroke="#6b32b8" stroke-width="1.51"/><path d="M1887,-90L1840,-26L1935,53Z" fill="#985f94" stroke="#985f94" stroke-width="1.51"/><path d="M1798,692L1928,875L1959,664Z" fill="#7c40b5" stroke="#7c40b5" stroke-width="1.51"/><path d="M1970,365L1755,398L1971,566Z" fill="#b5789a" stroke="#b5789a" stroke-width="1.51"/><path d="M1755,398L1764,595L1971,566Z" fill="#a666a0" stroke="#a666a0" stroke-width="1.51"/><path d="M1811,199L1970,365L1981,246Z" fill="#d09a89" stroke="#d09a89" stroke-width="1.51"/><path d="M1935,53L1811,199L1981,246Z" fill="#be858d" stroke="#be858d" stroke-width="1.51"/><path d="M1793,-237L1887,-90L1983,-224Z" fill="#743f99" stroke="#743f99" stroke-width="1.51"/><path d="M1928,875L1745,1012L1986,1029Z" fill="#743fc1" stroke="#743fc1" stroke-width="1.51"/><path d="M1745,1012L1899,1126L1986,1029Z" fill="#7945c4" stroke="#7945c4" stroke-width="1.51"/><path d="M1899,1126L1769,1186L1986,1340Z" fill="#8452ca" stroke="#8452ca" stroke-width="1.51"/><path d="M1769,1186L1730,1334L1986,1340Z" fill="#8554cb" stroke="#8554cb" stroke-width="1.51"/><path d="M1782,120L1811,199L1935,53Z" fill="#b4798d" stroke="#b4798d" stroke-width="1.51"/><path d="M1764,595L1798,692L1959,664Z" fill="#8f4fac" stroke="#8f4fac" stroke-width="1.51"/><path d="M1811,199L1755,398L1970,365Z" fill="#c68c8d" stroke="#c68c8d" stroke-width="1.51"/><path d="M1764,595L1959,664L1971,566Z" fill="#995aa9" stroke="#995aa9" stroke-width="1.51"/><path d="M1534,1270L1281,1313L1730,1334Z" fill="#7945c4" stroke="#7945c4" stroke-width="1.51"/><path d="M1786,844L1745,1012L1928,875Z" fill="#6d37bd" stroke="#6d37bd" stroke-width="1.51"/><path d="M1840,-26L1782,120L1935,53Z" fill="#a56b90" stroke="#a56b90" stroke-width="1.51"/><path d="M1745,1012L1769,1186L1899,1126Z" fill="#7945c4" stroke="#7945c4" stroke-width="1.51"/><path d="M1183,-232L1363,-208L1515,-235Z" fill="#551b8c" stroke="#551b8c" stroke-width="1.51"/><path d="M1793,-237L1840,-26L1887,-90Z" fill="#824996" stroke="#824996" stroke-width="1.51"/><path d="M1152,1283L919,1280L1281,1313Z" fill="#975ab1" stroke="#975ab1" stroke-width="1.51"/><path d="M1686,1254L1730,1334L1769,1186Z" fill="#7f4dc7" stroke="#7f4dc7" stroke-width="1.51"/><path d="M1677,197L1755,398L1811,199Z" fill="#ca9285" stroke="#ca9285" stroke-width="1.51"/><path d="M1793,-237L1681,-32L1840,-26Z" fill="#834a94" stroke="#834a94" stroke-width="1.51"/><path d="M1681,-32L1782,120L1840,-26Z" fill="#9d6190" stroke="#9d6190" stroke-width="1.51"/><path d="M1677,197L1686,409L1755,398Z" fill="#bf838b" stroke="#bf838b" stroke-width="1.51"/><path d="M1755,398L1686,409L1764,595Z" fill="#ac6b98" stroke="#ac6b98" stroke-width="1.51"/><path d="M1669,1000L1745,1012L1786,844Z" fill="#6c35bc" stroke="#6c35bc" stroke-width="1.51"/><path d="M1625,-229L1681,-32L1793,-237Z" fill="#713994" stroke="#713994" stroke-width="1.51"/><path d="M1622,795L1786,844L1798,692Z" fill="#6e31b3" stroke="#6e31b3" stroke-width="1.51"/><path d="M1782,120L1677,197L1811,199Z" fill="#b97f89" stroke="#b97f89" stroke-width="1.51"/><path d="M1686,409L1596,484L1764,595Z" fill="#a5639a" stroke="#a5639a" stroke-width="1.51"/><path d="M1745,1012L1612,1172L1769,1186Z" fill="#7642c2" stroke="#7642c2" stroke-width="1.51"/><path d="M1764,595L1623,655L1798,692Z" fill="#8b49a8" stroke="#8b49a8" stroke-width="1.51"/><path d="M1623,655L1622,795L1798,692Z" fill="#7b3aad" stroke="#7b3aad" stroke-width="1.51"/><path d="M1669,1000L1612,1172L1745,1012Z" fill="#713bbe" stroke="#713bbe" stroke-width="1.51"/><path d="M1681,-32L1589,91L1782,120Z" fill="#a1648c" stroke="#a1648c" stroke-width="1.51"/><path d="M1622,795L1669,1000L1786,844Z" fill="#652db8" stroke="#652db8" stroke-width="1.51"/><path d="M1589,91L1677,197L1782,120Z" fill="#b0738a" stroke="#b0738a" stroke-width="1.51"/><path d="M1596,484L1623,655L1764,595Z" fill="#9653a1" stroke="#9653a1" stroke-width="1.51"/><path d="M1612,1172L1686,1254L1769,1186Z" fill="#7a47c4" stroke="#7a47c4" stroke-width="1.51"/><path d="M1686,1254L1534,1270L1730,1334Z" fill="#7d4bc6" stroke="#7d4bc6" stroke-width="1.51"/><path d="M1515,-235L1508,-7L1625,-229Z" fill="#6e3290" stroke="#6e3290" stroke-width="1.51"/><path d="M1622,795L1509,983L1669,1000Z" fill="#652cb7" stroke="#652cb7" stroke-width="1.51"/><path d="M1509,983L1612,1172L1669,1000Z" fill="#6d35bc" stroke="#6d35bc" stroke-width="1.51"/><path d="M1511,143L1449,221L1677,197Z" fill="#b57784" stroke="#b57784" stroke-width="1.51"/><path d="M1625,-229L1508,-7L1681,-32Z" fill="#7f4390" stroke="#7f4390" stroke-width="1.51"/><path d="M1508,-7L1589,91L1681,-32Z" fill="#95578c" stroke="#95578c" stroke-width="1.51"/><path d="M1446,421L1596,484L1686,409Z" fill="#ab6893" stroke="#ab6893" stroke-width="1.51"/><path d="M1677,197L1449,221L1686,409Z" fill="#c48883" stroke="#c48883" stroke-width="1.51"/><path d="M1449,221L1446,421L1686,409Z" fill="#b67689" stroke="#b67689" stroke-width="1.51"/><path d="M1612,1172L1534,1270L1686,1254Z" fill="#7844c3" stroke="#7844c3" stroke-width="1.51"/><path d="M1589,91L1511,143L1677,197Z" fill="#ae7187" stroke="#ae7187" stroke-width="1.51"/><path d="M1596,484L1497,567L1623,655Z" fill="#94509e" stroke="#94509e" stroke-width="1.51"/><path d="M1509,983L1461,1161L1612,1172Z" fill="#6d36bd" stroke="#6d36bd" stroke-width="1.51"/><path d="M1453,817L1509,983L1622,795Z" fill="#5d21b4" stroke="#5d21b4" stroke-width="1.51"/><path d="M1480,719L1622,795L1623,655Z" fill="#7433ab" stroke="#7433ab" stroke-width="1.51"/><path d="M1497,567L1480,719L1623,655Z" fill="#833fa4" stroke="#833fa4" stroke-width="1.51"/><path d="M1480,719L1453,817L1622,795Z" fill="#6424ae" stroke="#6424ae" stroke-width="1.51"/><path d="M1461,1161L1534,1270L1612,1172Z" fill="#733ec0" stroke="#733ec0" stroke-width="1.51"/><path d="M1446,421L1497,567L1596,484Z" fill="#a05b96" stroke="#a05b96" stroke-width="1.51"/><path d="M1508,-7L1511,143L1589,91Z" fill="#9f6089" stroke="#9f6089" stroke-width="1.51"/><path d="M713,1261L402,1333L919,1280Z" fill="#c99294" stroke="#c99294" stroke-width="1.51"/><path d="M1345,351L1446,421L1449,221Z" fill="#b57485" stroke="#b57485" stroke-width="1.51"/><path d="M1453,817L1379,840L1509,983Z" fill="#5a1eb1" stroke="#5a1eb1" stroke-width="1.51"/><path d="M1366,1139L1461,1161L1509,983Z" fill="#6831ba" stroke="#6831ba" stroke-width="1.51"/><path d="M1332,1030L1366,1139L1509,983Z" fill="#632ab7" stroke="#632ab7" stroke-width="1.51"/><path d="M1508,-7L1388,126L1511,143Z" fill="#9f5f87" stroke="#9f5f87" stroke-width="1.51"/><path d="M1344,-111L1508,-7L1515,-235Z" fill="#73358d" stroke="#73358d" stroke-width="1.51"/><path d="M1363,-208L1344,-111L1515,-235Z" fill="#61258d" stroke="#61258d" stroke-width="1.51"/><path d="M1461,1161L1281,1313L1534,1270Z" fill="#723cbf" stroke="#723cbf" stroke-width="1.51"/><path d="M1324,669L1480,719L1497,567Z" fill="#7e39a2" stroke="#7e39a2" stroke-width="1.51"/><path d="M1379,840L1332,1030L1509,983Z" fill="#5d22b3" stroke="#5d22b3" stroke-width="1.51"/><path d="M1388,126L1449,221L1511,143Z" fill="#ad6d83" stroke="#ad6d83" stroke-width="1.51"/><path d="M1366,1139L1281,1313L1461,1161Z" fill="#6c35bc" stroke="#6c35bc" stroke-width="1.51"/><path d="M1446,421L1307,512L1497,567Z" fill="#9b5494" stroke="#9b5494" stroke-width="1.51"/><path d="M1344,-111L1388,126L1508,-7Z" fill="#8c4b88" stroke="#8c4b88" stroke-width="1.51"/><path d="M-173,-217L236,-204L461,-248Z" fill="#814c67" stroke="#814c67" stroke-width="1.51"/><path d="M1307,512L1324,669L1497,567Z" fill="#8a439b" stroke="#8a439b" stroke-width="1.51"/><path d="M1379,840L1453,817L1480,719Z" fill="#5c1bad" stroke="#5c1bad" stroke-width="1.51"/><path d="M1324,669L1379,840L1480,719Z" fill="#6824a8" stroke="#6824a8" stroke-width="1.51"/><path d="M1344,-111L1234,-43L1388,126Z" fill="#8c4b85" stroke="#8c4b85" stroke-width="1.51"/><path d="M1388,126L1328,184L1449,221Z" fill="#ad6d81" stroke="#ad6d81" stroke-width="1.51"/><path d="M1328,184L1345,351L1449,221Z" fill="#bb7b7e" stroke="#bb7b7e" stroke-width="1.51"/><path d="M1345,351L1307,512L1446,421Z" fill="#a55f8d" stroke="#a55f8d" stroke-width="1.51"/><path d="M1203,1139L1281,1313L1366,1139Z" fill="#793eb7" stroke="#793eb7" stroke-width="1.51"/><path d="M1226,824L1332,1030L1379,840Z" fill="#6120ad" stroke="#6120ad" stroke-width="1.51"/><path d="M1324,669L1226,824L1379,840Z" fill="#6622a8" stroke="#6622a8" stroke-width="1.51"/><path d="M1217,59L1328,184L1388,126Z" fill="#a76780" stroke="#a76780" stroke-width="1.51"/><path d="M1234,-43L1217,59L1388,126Z" fill="#9c5c80" stroke="#9c5c80" stroke-width="1.51"/><path d="M1210,418L1307,512L1345,351Z" fill="#ac6988" stroke="#ac6988" stroke-width="1.51"/><path d="M1307,512L1232,537L1324,669Z" fill="#944d95" stroke="#944d95" stroke-width="1.51"/><path d="M1226,824L1129,982L1332,1030Z" fill="#7331ab" stroke="#7331ab" stroke-width="1.51"/><path d="M1328,184L1145,262L1345,351Z" fill="#c58976" stroke="#c58976" stroke-width="1.51"/><path d="M1183,-232L1344,-111L1363,-208Z" fill="#692b89" stroke="#692b89" stroke-width="1.51"/><path d="M1332,1030L1203,1139L1366,1139Z" fill="#7134b4" stroke="#7134b4" stroke-width="1.51"/><path d="M1090,1265L919,1280L1152,1283Z" fill="#9f61ac" stroke="#9f61ac" stroke-width="1.51"/><path d="M1183,-232L1234,-43L1344,-111Z" fill="#7b3c85" stroke="#7b3c85" stroke-width="1.51"/><path d="M1145,262L1210,418L1345,351Z" fill="#be7f7c" stroke="#be7f7c" stroke-width="1.51"/><path d="M1232,537L1147,634L1324,669Z" fill="#944c95" stroke="#944c95" stroke-width="1.51"/><path d="M1147,634L1226,824L1324,669Z" fill="#823b9e" stroke="#823b9e" stroke-width="1.51"/><path d="M1129,982L1203,1139L1332,1030Z" fill="#7a3aae" stroke="#7a3aae" stroke-width="1.51"/><path d="M1203,1139L1152,1283L1281,1313Z" fill="#874bb5" stroke="#874bb5" stroke-width="1.51"/><path d="M1217,59L1145,262L1328,184Z" fill="#b87a78" stroke="#b87a78" stroke-width="1.51"/><path d="M1210,418L1232,537L1307,512Z" fill="#a7628b" stroke="#a7628b" stroke-width="1.51"/><path d="M1005,-157L1017,-56L1183,-232Z" fill="#8d4f7a" stroke="#8d4f7a" stroke-width="1.51"/><path d="M1145,262L1085,405L1210,418Z" fill="#c48677" stroke="#c48677" stroke-width="1.51"/><path d="M1074,106L1145,262L1217,59Z" fill="#bb8073" stroke="#bb8073" stroke-width="1.51"/><path d="M1147,634L1064,650L1226,824Z" fill="#8f4798" stroke="#8f4798" stroke-width="1.51"/><path d="M1064,650L1014,814L1226,824Z" fill="#89429a" stroke="#89429a" stroke-width="1.51"/><path d="M1210,418L1085,405L1232,537Z" fill="#b47283" stroke="#b47283" stroke-width="1.51"/><path d="M1085,405L1027,528L1232,537Z" fill="#b47383" stroke="#b47383" stroke-width="1.51"/><path d="M1017,-56L1217,59L1234,-43Z" fill="#9d5f7b" stroke="#9d5f7b" stroke-width="1.51"/><path d="M1183,-232L1017,-56L1234,-43Z" fill="#8c4d7e" stroke="#8c4d7e" stroke-width="1.51"/><path d="M1017,-56L1074,106L1217,59Z" fill="#ac7076" stroke="#ac7076" stroke-width="1.51"/><path d="M1014,814L1129,982L1226,824Z" fill="#7e3aa2" stroke="#7e3aa2" stroke-width="1.51"/><path d="M1027,528L1147,634L1232,537Z" fill="#a7628b" stroke="#a7628b" stroke-width="1.51"/><path d="M1090,1265L1152,1283L1203,1139Z" fill="#8f52b0" stroke="#8f52b0" stroke-width="1.51"/><path d="M865,-245L1005,-157L1183,-232Z" fill="#86497a" stroke="#86497a" stroke-width="1.51"/><path d="M1129,982L1047,1158L1203,1139Z" fill="#8b4aaa" stroke="#8b4aaa" stroke-width="1.51"/><path d="M1047,1158L1090,1265L1203,1139Z" fill="#9253ad" stroke="#9253ad" stroke-width="1.51"/><path d="M1014,814L983,952L1129,982Z" fill="#8c479f" stroke="#8c479f" stroke-width="1.51"/><path d="M1074,106L1002,188L1145,262Z" fill="#c9926b" stroke="#c9926b" stroke-width="1.51"/><path d="M1027,528L1064,650L1147,634Z" fill="#a7638b" stroke="#a7638b" stroke-width="1.51"/><path d="M983,952L1047,1158L1129,982Z" fill="#914fa3" stroke="#914fa3" stroke-width="1.51"/><path d="M1002,188L1085,405L1145,262Z" fill="#d49e68" stroke="#d49e68" stroke-width="1.51"/><path d="M1002,188L916,242L1085,405Z" fill="#dbaa60" stroke="#dbaa60" stroke-width="1.51"/><path d="M983,952L914,1005L1047,1158Z" fill="#9b58a0" stroke="#9b58a0" stroke-width="1.51"/><path d="M914,1005L928,1134L1047,1158Z" fill="#a060a0" stroke="#a060a0" stroke-width="1.51"/><path d="M900,740L1014,814L1064,650Z" fill="#9b5591" stroke="#9b5591" stroke-width="1.51"/><path d="M1017,-56L937,123L1074,106Z" fill="#b8806d" stroke="#b8806d" stroke-width="1.51"/><path d="M916,242L842,363L1085,405Z" fill="#d8a664" stroke="#d8a664" stroke-width="1.51"/><path d="M1047,1158L919,1280L1090,1265Z" fill="#a162a8" stroke="#a162a8" stroke-width="1.51"/><path d="M842,363L1027,528L1085,405Z" fill="#c98e73" stroke="#c98e73" stroke-width="1.51"/><path d="M937,123L1002,188L1074,106Z" fill="#c79168" stroke="#c79168" stroke-width="1.51"/><path d="M842,363L856,519L1027,528Z" fill="#cb9171" stroke="#cb9171" stroke-width="1.51"/><path d="M856,519L900,740L1027,528Z" fill="#b87780" stroke="#b87780" stroke-width="1.51"/><path d="M1027,528L900,740L1064,650Z" fill="#aa6689" stroke="#aa6689" stroke-width="1.51"/><path d="M928,1134L919,1280L1047,1158Z" fill="#a566a3" stroke="#a566a3" stroke-width="1.51"/><path d="M867,869L983,952L1014,814Z" fill="#965099" stroke="#965099" stroke-width="1.51"/><path d="M846,-30L937,123L1017,-56Z" fill="#b8806a" stroke="#b8806a" stroke-width="1.51"/><path d="M1005,-157L846,-30L1017,-56Z" fill="#a56a70" stroke="#a56a70" stroke-width="1.51"/><path d="M900,740L867,869L1014,814Z" fill="#975094" stroke="#975094" stroke-width="1.51"/><path d="M865,-245L846,-30L1005,-157Z" fill="#9e6570" stroke="#9e6570" stroke-width="1.51"/><path d="M937,123L916,242L1002,188Z" fill="#d3a260" stroke="#d3a260" stroke-width="1.51"/><path d="M867,869L914,1005L983,952Z" fill="#9d5898" stroke="#9d5898" stroke-width="1.51"/><path d="M631,1250L402,1333L713,1261Z" fill="#d39e8c" stroke="#d39e8c" stroke-width="1.51"/><path d="M759,-166L846,-30L865,-245Z" fill="#a66e6b" stroke="#a66e6b" stroke-width="1.51"/><path d="M856,519L747,646L900,740Z" fill="#bc7c7e" stroke="#bc7c7e" stroke-width="1.51"/><path d="M867,869L790,972L914,1005Z" fill="#a56295" stroke="#a56295" stroke-width="1.51"/><path d="M914,1005L790,972L928,1134Z" fill="#a76699" stroke="#a76699" stroke-width="1.51"/><path d="M715,1187L919,1280L928,1134Z" fill="#b2759d" stroke="#b2759d" stroke-width="1.51"/><path d="M731,131L916,242L937,123Z" fill="#d8a959" stroke="#d8a959" stroke-width="1.51"/><path d="M846,-30L731,131L937,123Z" fill="#cb9a5e" stroke="#cb9a5e" stroke-width="1.51"/><path d="M715,1187L713,1261L919,1280Z" fill="#bc819a" stroke="#bc819a" stroke-width="1.51"/><path d="M790,972L715,1187L928,1134Z" fill="#b27396" stroke="#b27396" stroke-width="1.51"/><path d="M731,131L697,246L916,242Z" fill="#e5bc4c" stroke="#e5bc4c" stroke-width="1.51"/><path d="M697,246L842,363L916,242Z" fill="#e9c14d" stroke="#e9c14d" stroke-width="1.51"/><path d="M755,847L867,869L900,740Z" fill="#a0598f" stroke="#a0598f" stroke-width="1.51"/><path d="M759,536L747,646L856,519Z" fill="#c98e73" stroke="#c98e73" stroke-width="1.51"/><path d="M747,646L755,847L900,740Z" fill="#af6c86" stroke="#af6c86" stroke-width="1.51"/><path d="M759,-166L726,-116L846,-30Z" fill="#b17d65" stroke="#b17d65" stroke-width="1.51"/><path d="M842,363L712,407L856,519Z" fill="#daa663" stroke="#daa663" stroke-width="1.51"/><path d="M712,407L759,536L856,519Z" fill="#d59f68" stroke="#d59f68" stroke-width="1.51"/><path d="M571,-241L759,-166L865,-245Z" fill="#a16c67" stroke="#a16c67" stroke-width="1.51"/><path d="M755,847L790,972L867,869Z" fill="#a86490" stroke="#a86490" stroke-width="1.51"/><path d="M697,246L712,407L842,363Z" fill="#e9bf4e" stroke="#e9bf4e" stroke-width="1.51"/><path d="M726,-116L731,131L846,-30Z" fill="#c3925e" stroke="#c3925e" stroke-width="1.51"/><path d="M726,-116L617,-73L731,131Z" fill="#c79958" stroke="#c79958" stroke-width="1.51"/><path d="M747,646L538,707L755,847Z" fill="#bd7d7d" stroke="#bd7d7d" stroke-width="1.51"/><path d="M591,1039L715,1187L790,972Z" fill="#bc7f8e" stroke="#bc7f8e" stroke-width="1.51"/><path d="M755,847L606,893L790,972Z" fill="#b2708a" stroke="#b2708a" stroke-width="1.51"/><path d="M606,893L591,1039L790,972Z" fill="#ba7c88" stroke="#ba7c88" stroke-width="1.51"/><path d="M617,-73L564,116L731,131Z" fill="#d8b04a" stroke="#d8b04a" stroke-width="1.51"/><path d="M538,707L606,893L755,847Z" fill="#b57482" stroke="#b57482" stroke-width="1.51"/><path d="M612,526L747,646L759,536Z" fill="#d0996d" stroke="#d0996d" stroke-width="1.51"/><path d="M712,407L612,526L759,536Z" fill="#dba961" stroke="#dba961" stroke-width="1.51"/><path d="M571,-241L726,-116L759,-166Z" fill="#ad7a62" stroke="#ad7a62" stroke-width="1.51"/><path d="M591,1039L558,1112L715,1187Z" fill="#c68c8a" stroke="#c68c8a" stroke-width="1.51"/><path d="M612,526L538,707L747,646Z" fill="#cf976d" stroke="#cf976d" stroke-width="1.51"/><path d="M697,246L616,235L712,407Z" fill="#f3d139" stroke="#f3d139" stroke-width="1.51"/><path d="M616,235L538,414L712,407Z" fill="#f1cd3e" stroke="#f1cd3e" stroke-width="1.51"/><path d="M571,-241L617,-73L726,-116Z" fill="#b6865c" stroke="#b6865c" stroke-width="1.51"/><path d="M616,235L697,246L731,131Z" fill="#edc93d" stroke="#edc93d" stroke-width="1.51"/><path d="M564,116L616,235L731,131Z" fill="#e9c63d" stroke="#e9c63d" stroke-width="1.51"/><path d="M631,1250L713,1261L715,1187Z" fill="#c68d92" stroke="#c68d92" stroke-width="1.51"/><path d="M538,414L612,526L712,407Z" fill="#e6bb52" stroke="#e6bb52" stroke-width="1.51"/><path d="M558,1112L631,1250L715,1187Z" fill="#c8908d" stroke="#c8908d" stroke-width="1.51"/><path d="M538,707L445,794L606,893Z" fill="#bb7c7c" stroke="#bb7c7c" stroke-width="1.51"/><path d="M453,971L591,1039L606,893Z" fill="#c38881" stroke="#c38881" stroke-width="1.51"/><path d="M476,521L538,707L612,526Z" fill="#d9a762" stroke="#d9a762" stroke-width="1.51"/><path d="M467,344L538,414L616,235Z" fill="#f6d72f" stroke="#f6d72f" stroke-width="1.51"/><path d="M443,-28L564,116L617,-73Z" fill="#d3ac49" stroke="#d3ac49" stroke-width="1.51"/><path d="M571,-241L461,-248L617,-73Z" fill="#b48659" stroke="#b48659" stroke-width="1.51"/><path d="M461,-248L443,-28L617,-73Z" fill="#bb8e56" stroke="#bb8e56" stroke-width="1.51"/><path d="M558,1112L402,1333L631,1250Z" fill="#ce998a" stroke="#ce998a" stroke-width="1.51"/><path d="M381,1154L402,1333L558,1112Z" fill="#c28a8c" stroke="#c28a8c" stroke-width="1.51"/><path d="M538,414L476,521L612,526Z" fill="#e4b953" stroke="#e4b953" stroke-width="1.51"/><path d="M564,116L406,185L616,235Z" fill="#eed02f" stroke="#eed02f" stroke-width="1.51"/><path d="M406,185L467,344L616,235Z" fill="#f7db20" stroke="#f7db20" stroke-width="1.51"/><path d="M445,794L453,971L606,893Z" fill="#b97a80" stroke="#b97a80" stroke-width="1.51"/><path d="M453,971L558,1112L591,1039Z" fill="#c58b84" stroke="#c58b84" stroke-width="1.51"/><path d="M476,521L399,662L538,707Z" fill="#cb936b" stroke="#cb936b" stroke-width="1.51"/><path d="M443,-28L381,101L564,116Z" fill="#d4ad48" stroke="#d4ad48" stroke-width="1.51"/><path d="M381,101L406,185L564,116Z" fill="#deba40" stroke="#deba40" stroke-width="1.51"/><path d="M453,971L381,1154L558,1112Z" fill="#be8488" stroke="#be8488" stroke-width="1.51"/><path d="M399,662L445,794L538,707Z" fill="#bd8176" stroke="#bd8176" stroke-width="1.51"/><path d="M467,344L476,521L538,414Z" fill="#e5bd4b" stroke="#e5bd4b" stroke-width="1.51"/><path d="M-173,-217L79,-165L236,-204Z" fill="#76406a" stroke="#76406a" stroke-width="1.51"/><path d="M381,1154L307,1266L402,1333Z" fill="#ba8390" stroke="#ba8390" stroke-width="1.51"/><path d="M339,1030L381,1154L453,971Z" fill="#b3778a" stroke="#b3778a" stroke-width="1.51"/><path d="M445,794L323,800L453,971Z" fill="#ab6b83" stroke="#ab6b83" stroke-width="1.51"/><path d="M286,-116L443,-28L461,-248Z" fill="#ac7c5c" stroke="#ac7c5c" stroke-width="1.51"/><path d="M406,185L309,262L467,344Z" fill="#edce31" stroke="#edce31" stroke-width="1.51"/><path d="M238,513L399,662L476,521Z" fill="#c79168" stroke="#c79168" stroke-width="1.51"/><path d="M280,415L238,513L476,521Z" fill="#cc9c5f" stroke="#cc9c5f" stroke-width="1.51"/><path d="M467,344L280,415L476,521Z" fill="#dcb152" stroke="#dcb152" stroke-width="1.51"/><path d="M323,800L339,1030L453,971Z" fill="#ab6c86" stroke="#ab6c86" stroke-width="1.51"/><path d="M309,262L280,415L467,344Z" fill="#e0b947" stroke="#e0b947" stroke-width="1.51"/><path d="M399,662L323,800L445,794Z" fill="#b0717c" stroke="#b0717c" stroke-width="1.51"/><path d="M236,-204L286,-116L461,-248Z" fill="#9b6762" stroke="#9b6762" stroke-width="1.51"/><path d="M286,-116L381,101L443,-28Z" fill="#bd9055" stroke="#bd9055" stroke-width="1.51"/><path d="M286,-116L179,-25L381,101Z" fill="#b3845a" stroke="#b3845a" stroke-width="1.51"/><path d="M179,-25L252,141L381,101Z" fill="#c09354" stroke="#c09354" stroke-width="1.51"/><path d="M238,513L248,667L399,662Z" fill="#b77e70" stroke="#b77e70" stroke-width="1.51"/><path d="M248,667L323,800L399,662Z" fill="#ae707a" stroke="#ae707a" stroke-width="1.51"/><path d="M307,1266L147,1333L402,1333Z" fill="#b37c95" stroke="#b37c95" stroke-width="1.51"/><path d="M381,101L252,141L406,185Z" fill="#d4ad48" stroke="#d4ad48" stroke-width="1.51"/><path d="M252,141L309,262L406,185Z" fill="#dab544" stroke="#dab544" stroke-width="1.51"/><path d="M323,800L157,980L339,1030Z" fill="#9d5e89" stroke="#9d5e89" stroke-width="1.51"/><path d="M172,828L157,980L323,800Z" fill="#925288" stroke="#925288" stroke-width="1.51"/><path d="M339,1030L229,1147L381,1154Z" fill="#ad718d" stroke="#ad718d" stroke-width="1.51"/><path d="M229,1147L307,1266L381,1154Z" fill="#af7690" stroke="#af7690" stroke-width="1.51"/><path d="M188,356L280,415L309,262Z" fill="#d5ab4f" stroke="#d5ab4f" stroke-width="1.51"/><path d="M157,980L229,1147L339,1030Z" fill="#9f638d" stroke="#9f638d" stroke-width="1.51"/><path d="M248,667L172,828L323,800Z" fill="#9b5b81" stroke="#9b5b81" stroke-width="1.51"/><path d="M229,1147L145,1175L307,1266Z" fill="#a56c92" stroke="#a56c92" stroke-width="1.51"/><path d="M252,141L117,233L309,262Z" fill="#d1aa4a" stroke="#d1aa4a" stroke-width="1.51"/><path d="M117,233L188,356L309,262Z" fill="#d6af49" stroke="#d6af49" stroke-width="1.51"/><path d="M179,-25L130,81L252,141Z" fill="#b58658" stroke="#b58658" stroke-width="1.51"/><path d="M145,1175L147,1333L307,1266Z" fill="#a46c95" stroke="#a46c95" stroke-width="1.51"/><path d="M238,513L163,640L248,667Z" fill="#af7473" stroke="#af7473" stroke-width="1.51"/><path d="M236,-204L179,-25L286,-116Z" fill="#9c6961" stroke="#9c6961" stroke-width="1.51"/><path d="M188,356L238,513L280,415Z" fill="#c8985d" stroke="#c8985d" stroke-width="1.51"/><path d="M-173,-217L-23,-155L79,-165Z" fill="#6e386b" stroke="#6e386b" stroke-width="1.51"/><path d="M157,980L145,1175L229,1147Z" fill="#995d90" stroke="#995d90" stroke-width="1.51"/><path d="M79,-165L179,-25L236,-204Z" fill="#915c64" stroke="#915c64" stroke-width="1.51"/><path d="M188,356L136,538L238,513Z" fill="#be8964" stroke="#be8964" stroke-width="1.51"/><path d="M136,538L163,640L238,513Z" fill="#b0776f" stroke="#b0776f" stroke-width="1.51"/><path d="M163,640L172,828L248,667Z" fill="#9c5e7d" stroke="#9c5e7d" stroke-width="1.51"/><path d="M130,81L117,233L252,141Z" fill="#c19553" stroke="#c19553" stroke-width="1.51"/><path d="M-12,1249L-152,1285L147,1333Z" fill="#88539b" stroke="#88539b" stroke-width="1.51"/><path d="M16,1137L145,1175L157,980Z" fill="#8e5492" stroke="#8e5492" stroke-width="1.51"/><path d="M-21,952L157,980L172,828Z" fill="#84468c" stroke="#84468c" stroke-width="1.51"/><path d="M163,640L-19,804L172,828Z" fill="#894984" stroke="#894984" stroke-width="1.51"/><path d="M24,377L136,538L188,356Z" fill="#bb8762" stroke="#bb8762" stroke-width="1.51"/><path d="M117,233L24,377L188,356Z" fill="#c79a55" stroke="#c79a55" stroke-width="1.51"/><path d="M145,1175L-12,1249L147,1333Z" fill="#955d98" stroke="#955d98" stroke-width="1.51"/><path d="M-57,730L-19,804L163,640Z" fill="#844582" stroke="#844582" stroke-width="1.51"/><path d="M-19,804L-21,952L172,828Z" fill="#79398b" stroke="#79398b" stroke-width="1.51"/><path d="M79,-165L-39,-71L179,-25Z" fill="#8d5865" stroke="#8d5865" stroke-width="1.51"/><path d="M-39,-71L-14,42L179,-25Z" fill="#966263" stroke="#966263" stroke-width="1.51"/><path d="M-14,42L130,81L179,-25Z" fill="#a5745e" stroke="#a5745e" stroke-width="1.51"/><path d="M31,235L117,233L130,81Z" fill="#be9155" stroke="#be9155" stroke-width="1.51"/><path d="M-21,952L16,1137L157,980Z" fill="#834791" stroke="#834791" stroke-width="1.51"/><path d="M136,538L-66,556L163,640Z" fill="#a16674" stroke="#a16674" stroke-width="1.51"/><path d="M-66,556L-57,730L163,640Z" fill="#8f527b" stroke="#8f527b" stroke-width="1.51"/><path d="M31,235L24,377L117,233Z" fill="#c59a52" stroke="#c59a52" stroke-width="1.51"/><path d="M16,1137L-12,1249L145,1175Z" fill="#8b5397" stroke="#8b5397" stroke-width="1.51"/><path d="M24,377L-66,556L136,538Z" fill="#a8706d" stroke="#a8706d" stroke-width="1.51"/><path d="M-14,42L31,235L130,81Z" fill="#ae7e5b" stroke="#ae7e5b" stroke-width="1.51"/><path d="M-23,-155L-39,-71L79,-165Z" fill="#7d4769" stroke="#7d4769" stroke-width="1.51"/><path d="M-21,952L-168,1106L16,1137Z" fill="#743b95" stroke="#743b95" stroke-width="1.51"/><path d="M-132,361L-66,556L24,377Z" fill="#a56e6a" stroke="#a56e6a" stroke-width="1.51"/><path d="M-220,270L-132,361L31,235Z" fill="#b2825c" stroke="#b2825c" stroke-width="1.51"/><path d="M-175,99L-220,270L31,235Z" fill="#a8775d" stroke="#a8775d" stroke-width="1.51"/><path d="M-14,42L-175,99L31,235Z" fill="#a3715f" stroke="#a3715f" stroke-width="1.51"/><path d="M-132,361L24,377L31,235Z" fill="#b6875c" stroke="#b6875c" stroke-width="1.51"/><path d="M-141,831L-21,952L-19,804Z" fill="#682b8e" stroke="#682b8e" stroke-width="1.51"/><path d="M-168,1106L-12,1249L16,1137Z" fill="#7a4398" stroke="#7a4398" stroke-width="1.51"/><path d="M-66,556L-187,667L-57,730Z" fill="#7e407f" stroke="#7e407f" stroke-width="1.51"/><path d="M-153,940L-168,1106L-21,952Z" fill="#662e93" stroke="#662e93" stroke-width="1.51"/><path d="M-141,831L-153,940L-21,952Z" fill="#622990" stroke="#622990" stroke-width="1.51"/><path d="M-39,-71L-180,-76L-14,42Z" fill="#844f67" stroke="#844f67" stroke-width="1.51"/><path d="M-180,-76L-175,99L-14,42Z" fill="#885366" stroke="#885366" stroke-width="1.51"/><path d="M-168,1106L-152,1285L-12,1249Z" fill="#733f9b" stroke="#733f9b" stroke-width="1.51"/><path d="M-180,-76L-39,-71L-23,-155Z" fill="#77416a" stroke="#77416a" stroke-width="1.51"/><path d="M-57,730L-141,831L-19,804Z" fill="#692a8a" stroke="#692a8a" stroke-width="1.51"/><path d="M-173,-217L-180,-76L-23,-155Z" fill="#67326c" stroke="#67326c" stroke-width="1.51"/><path d="M-132,361L-218,542L-66,556Z" fill="#935a72" stroke="#935a72" stroke-width="1.51"/><path d="M-187,667L-141,831L-57,730Z" fill="#692b87" stroke="#692b87" stroke-width="1.51"/><path d="M-218,542L-187,667L-66,556Z" fill="#81447a" stroke="#81447a" stroke-width="1.51"/><path d="M-220,270L-218,542L-132,361Z" fill="#9a636a" stroke="#9a636a" stroke-width="1.51"/><path d="M-187,667L-153,940L-141,831Z" fill="#53198d" stroke="#53198d" stroke-width="1.51"/><path d="M-187,667L-168,1106L-153,940Z" fill="#561f91" stroke="#561f91" stroke-width="1.51"/><path d="M-187,667L-218,542L-168,1106Z" fill="#581d8b" stroke="#581d8b" stroke-width="1.51"/><path d="M-180,-76L-220,270L-175,99Z" fill="#8e5965" stroke="#8e5965" stroke-width="1.51"/><path d="M-220,270L-180,-76L-173,-217Z" fill="#7b4569" stroke="#7b4569" stroke-width="1.51"/></svg>